<?xml version="1.0" encoding="UTF-8"?>
<svg id="_图层_1" data-name="图层_1" xmlns="http://www.w3.org/2000/svg" version="1.1" viewBox="0 0 240.94 178.58">
  <!-- Generator: Adobe Illustrator 29.3.1, SVG Export Plug-In . SVG Version: 2.1.0 Build 151)  -->
  <defs>
    <style>
      .st0 {
        stroke-width: .19px;
      }

      .st0, .st1, .st2, .st3 {
        stroke: #000;
      }

      .st0, .st1, .st2, .st3, .st4, .st5, .st6, .st7, .st8, .st9, .st10, .st11, .st12, .st13 {
        fill: none;
      }

      .st1, .st4, .st7, .st13 {
        stroke-width: .29px;
      }

      .st2, .st5, .st8, .st12 {
        stroke-width: .38px;
      }

      .st3, .st6, .st9, .st10, .st11 {
        stroke-width: .39px;
      }

      .st14 {
        fill: blue;
      }

      .st15 {
        fill: #0c0;
      }

      .st16 {
        font-family: SegoeUI, 'Segoe UI';
        font-size: 9px;
      }

      .st4, .st5, .st6 {
        stroke: #191919;
      }

      .st7, .st8, .st9 {
        stroke: blue;
      }

      .st17 {
        fill: red;
      }

      .st10 {
        stroke: #0c0;
      }

      .st18 {
        fill: #191919;
      }

      .st11, .st12, .st13 {
        stroke: red;
      }
    </style>
  </defs>
  <text class="st16" transform="translate(25.03 36.39)"><tspan x="0" y="0">(1) PDB ID=9BCG, fragA=</tspan></text>
  <text class="st16" transform="translate(25.03 98.34)"><tspan x="0" y="0">(2) PDB ID=3LXN, fragA=</tspan></text>
  <text class="st16" transform="translate(25.03 160.29)"><tspan x="0" y="0">(3) PDB ID=6PE6, fragA=</tspan></text>
  <path class="st3" d="M212.35,43.23l-4.06-4.89"/>
  <path class="st3" d="M208.29,38.34l-6.26,1.06"/>
  <path class="st3" d="M207.59,37.49l-5.18.89"/>
  <path class="st3" d="M202.03,39.4l-4.06-4.89"/>
  <path class="st3" d="M197.97,34.51l-2.61.44"/>
  <path class="st11" d="M195.36,34.96l-2.63.44"/>
  <path class="st11" d="M190.78,34.46l-1.57-1.89"/>
  <path class="st3" d="M189.22,32.56l-1.57-1.87"/>
  <path class="st3" d="M187.65,30.69l-6.26,1.06"/>
  <path class="st3" d="M181.39,31.75l-4.06-4.91"/>
  <path class="st3" d="M177.33,26.84l-6.26,1.06"/>
  <path class="st3" d="M171.07,27.9l-4.54-4.43"/>
  <path class="st3" d="M169.91,28.12l-3.56-3.48"/>
  <path class="st3" d="M166.53,23.48l-2.38,1.24"/>
  <path class="st9" d="M164.15,24.72l-2.36,1.24"/>
  <path class="st9" d="M161.08,27.52l.44,2.59"/>
  <path class="st3" d="M161.52,30.11l.44,2.57"/>
  <path class="st3" d="M161.97,32.68l-3.94,4.99"/>
  <path class="st3" d="M158.02,37.66l-6.3-.93"/>
  <path class="st3" d="M151.72,36.74l-2.34-5.89"/>
  <path class="st3" d="M150.64,36.58l-1.93-4.89"/>
  <path class="st3" d="M149.39,30.84l3.94-4.99"/>
  <path class="st3" d="M149.39,30.84l-2.71-.41"/>
  <path class="st9" d="M146.68,30.44l-2.69-.39"/>
  <path class="st9" d="M142.22,31.02l-1.53,1.93"/>
  <path class="st3" d="M140.69,32.95l-1.53,1.95"/>
  <path class="st9" d="M142.97,31.61l-1.37,1.72"/>
  <path class="st3" d="M141.6,33.33l-1.35,1.72"/>
  <path class="st3" d="M139.16,34.9l-2.78-.41"/>
  <path class="st6" d="M136.38,34.49l-2.76-.43"/>
  <path class="st3" d="M139.16,34.9l.95,2.4"/>
  <path class="st9" d="M140.11,37.3l.95,2.4"/>
  <path class="st9" d="M142.39,40.93l2.71.41"/>
  <path class="st3" d="M145.1,41.33l2.69.39"/>
  <path class="st9" d="M142.53,39.98l2.43.37"/>
  <path class="st3" d="M144.96,40.35l2.42.35"/>
  <path class="st3" d="M147.78,41.72l2.34,5.91"/>
  <path class="st3" d="M158.02,37.66l2.34,5.91"/>
  <path class="st3" d="M159.11,37.82l1.93,4.89"/>
  <path class="st3" d="M160.36,43.58l-1.82,2.28"/>
  <path class="st10" d="M158.55,45.86l-1.8,2.28"/>
  <path class="st3" d="M160.36,43.58l6.28.93"/>
  <path class="st3" d="M166.64,44.5l3.94-4.99"/>
  <path class="st3" d="M166.24,43.48l3.27-4.14"/>
  <path class="st3" d="M170.59,39.52l-2.34-5.91"/>
  <path class="st9" d="M160,25.86l-2.22-1.43"/>
  <path class="st3" d="M157.77,24.43l-2.24-1.41"/>
  <path class="st0" d="M154.93,23.38l-.06-.08"/>
  <path class="st0" d="M154.33,23.77l-.1-.19"/>
  <path class="st0" d="M153.73,24.14l-.15-.27"/>
  <path class="st0" d="M153.12,24.52l-.19-.39"/>
  <path class="st0" d="M152.52,24.89l-.23-.46"/>
  <path class="st0" d="M151.92,25.26l-.29-.56"/>
  <path class="st0" d="M151.32,25.64l-.35-.66"/>
  <path class="st0" d="M150.72,26.01l-.39-.75"/>
  <path class="st0" d="M150.12,26.38l-.44-.83"/>
  <path class="st3" d="M155.53,23.02l.25-6.34"/>
  <path class="st3" d="M155.78,16.68l2.38-1.26"/>
  <path class="st9" d="M158.16,15.42l2.38-1.24"/>
  <path class="st9" d="M161.46,12.62l.1-2.07"/>
  <path class="st6" d="M161.56,10.55l.08-2.07"/>
  <path class="st9" d="M162.31,14.28l2.24,1.43"/>
  <path class="st3" d="M164.56,15.71l2.22,1.41"/>
  <path class="st3" d="M166.76,17.66l2.42-1.26"/>
  <path class="st11" d="M169.18,16.41l2.43-1.28"/>
  <path class="st3" d="M166.32,16.83l2.43-1.28"/>
  <path class="st11" d="M168.75,15.56l2.42-1.26"/>
  <path class="st3" d="M197.97,34.51l2.2-5.95"/>
  <path class="st3" d="M199.05,34.32l1.84-4.93"/>
  <path class="st3" d="M200.17,28.56l6.28-1.06"/>
  <path class="st3" d="M206.45,27.5l2.2-5.97"/>
  <path class="st3" d="M206.45,27.5l4.04,4.89"/>
  <path class="st3" d="M206.07,28.52l3.34,4.04"/>
  <path class="st3" d="M210.49,32.39l2.69-.46"/>
  <path class="st10" d="M213.18,31.92l2.69-.44"/>
  <path class="st3" d="M210.49,32.39l-2.2,5.95"/>
  <path class="st3" d="M168.25,33.61l2.82-5.7"/>
  <path class="st3" d="M166.78,17.12l-.25,6.36"/>
  <path class="st3" d="M168.25,33.61l-6.28-.93"/>
  <path class="st3" d="M167.57,34.47l-5.2-.77"/>
  <path class="st3" d="M147.78,41.72l3.94-4.99"/>
  <path class="st3" d="M202.34,39.34l-.31.06-.21-.25"/>
  <path class="st3" d="M187.73,30.76l-.08-.08-.31.04"/>
  <path class="st3" d="M181.7,31.69l-.31.06-.21-.25"/>
  <path class="st3" d="M177.54,27.09l-.21-.25-.31.06"/>
  <path class="st3" d="M166.33,44.45l.31.06.19-.25"/>
  <path class="st3" d="M170.39,39.77l.19-.25-.12-.31"/>
  <path class="st3" d="M155.65,23.09l-.12-.08.02-.31"/>
  <path class="st3" d="M155.78,16.99v-.31l.14-.08"/>
  <path class="st3" d="M166.68,17.04l.1.08v.31"/>
  <path class="st3" d="M200.08,28.85l.1-.29.33-.06"/>
  <path class="st17" d="M190.88,35.58c0-.28.07-.51.21-.68.14-.15.35-.23.62-.23s.46.08.62.23c.14.17.21.39.21.68s-.08.53-.23.7c-.14.15-.34.23-.6.23-.27,0-.48-.08-.62-.23-.14-.17-.21-.4-.21-.7M191.71,36.31c.18,0,.32-.06.43-.19.09-.12.14-.3.14-.54,0-.23-.05-.41-.14-.52-.1-.13-.24-.19-.43-.19s-.32.06-.43.17c-.1.13-.15.31-.15.54,0,.24.05.43.15.54.1.13.24.19.43.19"/>
  <path class="st14" d="M160.5,25.53l.6.95c.04.06.08.15.14.27.06.1.1.16.12.17v-1.39h.23v1.8h-.25l-.64-1.04c-.04-.09-.08-.18-.14-.27-.05-.09-.09-.15-.12-.17v1.49h-.23v-1.8h.29"/>
  <path class="st14" d="M142.7,29.01l.6.97c.04.05.09.14.15.25.05.12.08.18.1.19v-1.41h.23v1.8h-.25l-.62-1.04c-.05-.08-.1-.16-.15-.25-.05-.09-.09-.15-.12-.19v1.49h-.23v-1.8h.29"/>
  <path class="st18" d="M131.88,34.88l-.43-.75h-.29v.75h-.25v-1.82h.52c.21,0,.36.05.46.15.1.09.15.22.15.39,0,.13-.03.23-.08.31-.06.09-.15.15-.27.19l.44.77h-.27M131.16,33.93h.27c.13,0,.22-.03.27-.1.06-.05.1-.13.1-.23,0-.12-.03-.2-.1-.25-.05-.05-.14-.08-.27-.08h-.27v.66"/>
  <path class="st18" d="M132.42,34.67h.41v-1.35l-.44.14-.06-.14.56-.25.17.02v1.58h.35v.21h-.99v-.21"/>
  <path class="st14" d="M141.1,39.9l.6.95c.04.06.09.15.15.27.06.1.1.16.1.17v-1.39h.23v1.8h-.25l-.62-1.04c-.05-.08-.1-.17-.15-.27-.05-.09-.08-.15-.1-.17v1.49h-.23v-1.8h.27"/>
  <path class="st15" d="M154.72,48.62c0-.3.07-.53.21-.7.14-.15.35-.23.62-.23.24,0,.43.09.56.27l-.15.14c-.1-.13-.24-.19-.41-.19-.18,0-.32.06-.43.19-.09.12-.14.29-.14.52s.05.41.14.54c.1.12.25.17.44.17.13,0,.27-.04.43-.12l.08.19c-.06.04-.14.07-.23.1-.09.03-.19.04-.31.04-.26,0-.46-.08-.6-.25-.14-.15-.21-.38-.21-.68"/>
  <path class="st15" d="M156.3,47.6h.23v1.91h-.23v-1.91"/>
  <path class="st14" d="M161.02,12.81l.6.97c.04.06.09.15.15.25.05.12.08.18.1.19v-1.41h.23v1.82h-.25l-.62-1.04c-.05-.09-.1-.18-.15-.27-.05-.09-.08-.15-.1-.17v1.49h-.25v-1.82h.29"/>
  <path class="st18" d="M162.04,8.29l-.44-.75h-.29v.75h-.25v-1.82h.54c.21,0,.36.05.46.15.1.09.15.22.15.39,0,.13-.03.23-.1.31-.06.09-.15.15-.27.19l.44.77h-.25M161.31,7.34h.29c.12,0,.21-.03.27-.1.06-.05.1-.13.1-.23s-.03-.19-.1-.25c-.06-.05-.15-.08-.27-.08h-.29v.66"/>
  <path class="st18" d="M162.49,6.82c.05-.12.13-.21.23-.27s.23-.1.37-.1c.18,0,.32.05.43.15.1.1.15.24.15.41,0,.18-.06.35-.19.52-.13.17-.33.35-.6.54h.83v.21h-1.22v-.17c.22-.17.39-.31.52-.43.14-.12.24-.23.31-.33.06-.12.1-.23.1-.33,0-.12-.03-.21-.1-.27-.05-.06-.13-.1-.23-.1-.09,0-.17.02-.23.06-.06.04-.12.1-.17.19l-.19-.1"/>
  <path class="st17" d="M171.59,14.18c0-.3.07-.52.21-.68.14-.17.35-.25.62-.25s.46.08.6.25c.15.15.23.38.23.68,0,.28-.08.51-.23.68-.14.17-.34.25-.6.25-.27,0-.48-.08-.62-.25-.14-.15-.21-.38-.21-.68M172.42,14.92c.18,0,.32-.06.43-.19.09-.13.14-.31.14-.54,0-.24-.05-.43-.14-.54-.1-.12-.24-.17-.43-.17s-.32.06-.43.17-.15.3-.15.54.05.43.15.54c.1.13.24.19.43.19"/>
  <path class="st15" d="M216.08,31.38c0-.3.06-.52.19-.68.14-.17.35-.25.62-.25.24,0,.43.09.56.27l-.15.14c-.1-.13-.24-.19-.41-.19-.18,0-.32.06-.43.19-.09.12-.14.29-.14.52s.05.41.15.54c.09.12.23.17.43.17.14,0,.29-.04.44-.12l.06.19c-.06.04-.14.07-.23.1-.09.03-.19.04-.29.04-.27,0-.48-.08-.62-.25-.13-.15-.19-.38-.19-.68"/>
  <path class="st15" d="M217.64,30.36h.23v1.93h-.23v-1.93"/>
  <path class="st1" d="M184.32,75.43l.61,7.53"/>
  <path class="st1" d="M184.93,82.96l6.83,3.25"/>
  <path class="st1" d="M185.03,84.27l5.65,2.68"/>
  <path class="st1" d="M191.76,86.21l.6,7.53"/>
  <path class="st1" d="M192.36,93.74l6.83,3.25"/>
  <path class="st1" d="M199.19,96.98l2.88,1.37"/>
  <path class="st7" d="M202.08,98.35l2.88,1.37"/>
  <path class="st1" d="M199.69,95.96l2.88,1.37"/>
  <path class="st7" d="M202.57,97.33l2.88,1.37"/>
  <path class="st1" d="M198.71,98.02l2.88,1.37"/>
  <path class="st7" d="M201.59,99.39l2.88,1.37"/>
  <path class="st1" d="M192.36,93.74l-6.22,4.3"/>
  <path class="st1" d="M191.18,93.18l-5.14,3.55"/>
  <path class="st1" d="M186.14,98.03l-6.83-3.25"/>
  <path class="st1" d="M179.31,94.78l-.61-7.53"/>
  <path class="st1" d="M180.39,94.04l-.5-6.23"/>
  <path class="st1" d="M178.7,87.26l-2.8-1.33"/>
  <path class="st13" d="M175.9,85.93l-2.8-1.34"/>
  <path class="st13" d="M170.65,84.85l-2.51,1.73"/>
  <path class="st1" d="M168.14,86.59l-2.49,1.72"/>
  <path class="st1" d="M165.65,88.3l.61,7.53"/>
  <path class="st1" d="M164.57,89.05l.5,6.23"/>
  <path class="st1" d="M166.26,95.83l-6.23,4.3"/>
  <path class="st1" d="M160.03,100.13l.25,3.12"/>
  <path class="st7" d="M160.28,103.25l.25,3.1"/>
  <path class="st7" d="M161.7,108.17l2.39,1.14"/>
  <path class="st4" d="M164.09,109.31l2.39,1.14"/>
  <path class="st1" d="M160.03,100.13l-6.83-3.25"/>
  <path class="st1" d="M159.93,98.83l-5.65-2.69"/>
  <path class="st1" d="M153.2,96.88l-2.96,1.24"/>
  <path class="st7" d="M150.24,98.12l-2.96,1.24"/>
  <path class="st7" d="M145.16,98.56l-1.94-2.26"/>
  <path class="st1" d="M143.22,96.3l-1.92-2.24"/>
  <path class="st7" d="M146.02,97.81l-1.66-1.94"/>
  <path class="st1" d="M144.36,95.88l-1.66-1.94"/>
  <path class="st1" d="M141.3,94.06l1.57-2.58"/>
  <path class="st7" d="M142.87,91.48l1.56-2.56"/>
  <path class="st7" d="M144.69,86.28l-1.18-2.83"/>
  <path class="st1" d="M143.51,83.45l-1.18-2.84"/>
  <path class="st7" d="M146.29,87.85l3.16.74"/>
  <path class="st1" d="M149.45,88.6l3.15.76"/>
  <path class="st1" d="M152.6,89.35l2.58-1.78"/>
  <path class="st7" d="M155.18,87.58l2.58-1.79"/>
  <path class="st1" d="M153.78,89.91l2.32-1.59"/>
  <path class="st7" d="M156.1,88.32l2.3-1.59"/>
  <path class="st1" d="M178.7,87.26l6.23-4.3"/>
  <path class="st7" d="M159.88,85.57l2.88,1.37"/>
  <path class="st1" d="M162.77,86.93l2.88,1.37"/>
  <path class="st1" d="M152.6,89.35l.6,7.53"/>
  <path class="st1" d="M191.41,86.05l.35.16.03.38"/>
  <path class="st1" d="M198.86,96.82l.33.16.15.07"/>
  <path class="st1" d="M186.45,97.81l-.31.22-.35-.16"/>
  <path class="st1" d="M179.65,94.96l-.33-.17-.03-.36"/>
  <path class="st1" d="M166.22,95.47l.04.36-.32.22"/>
  <path class="st1" d="M141.4,94.16l-.1-.1.07-.13"/>
  <path class="st14" d="M205.56,99.15l.7,1.14c.05.08.11.18.17.32.08.14.12.21.12.22v-1.67h.29v2.14h-.29l-.76-1.24c-.06-.1-.12-.2-.17-.31-.07-.12-.11-.19-.12-.22v1.76h-.29v-2.14h.35"/>
  <path class="st17" d="M170.89,84.02c0-.35.08-.62.25-.8.17-.19.42-.29.73-.29s.56.1.73.29c.17.18.26.45.26.8s-.09.61-.26.82c-.17.19-.41.29-.73.29-.31,0-.55-.1-.73-.29-.17-.2-.25-.48-.25-.82M171.87,84.88c.22,0,.39-.07.51-.22.12-.15.17-.36.17-.64,0-.28-.06-.5-.17-.64-.12-.15-.29-.22-.51-.22-.21,0-.38.07-.5.22-.12.14-.17.35-.17.64s.06.5.17.64c.12.15.28.22.5.22"/>
  <path class="st14" d="M157.73,106.6h.29v.92h1.09v-.92h.29v2.14h-.29v-.99h-1.09v.99h-.29v-2.14"/>
  <path class="st14" d="M160.16,106.6l.7,1.14c.05.08.11.18.19.32.08.14.12.2.12.2v-1.66h.28v2.14h-.29l-.74-1.24c-.06-.1-.12-.2-.19-.31-.06-.12-.1-.19-.12-.22v1.76h-.28v-2.14h.33"/>
  <path class="st18" d="M167.88,111.99l-.51-.87h-.35v.87h-.29v-2.14h.64c.24,0,.42.06.54.17.13.11.19.26.19.47,0,.15-.04.27-.12.38-.07.1-.17.17-.32.2l.54.92h-.32M167.02,110.86h.35c.14,0,.24-.03.32-.1.07-.06.1-.15.1-.28,0-.14-.03-.23-.1-.29-.08-.07-.18-.1-.32-.1h-.35v.77"/>
  <path class="st18" d="M168.53,111.75h.47v-1.6l-.51.16-.07-.17.66-.29.22.03v1.88h.41v.23h-1.17v-.23"/>
  <path class="st14" d="M145.74,98.72l.71,1.14c.04.08.1.18.17.32.08.14.12.21.12.22v-1.67h.29v2.14h-.31l-.74-1.24c-.06-.1-.12-.2-.19-.31-.06-.12-.1-.19-.12-.22v1.76h-.28v-2.14h.33"/>
  <path class="st14" d="M144.76,86.53l.7,1.14c.05.08.11.18.19.31.07.14.11.21.12.22v-1.66h.28v2.14h-.29l-.76-1.24c-.06-.1-.12-.2-.17-.32-.06-.11-.1-.17-.12-.2v1.76h-.28v-2.14h.33"/>
  <path class="st14" d="M158.34,83.99l.71,1.12c.04.08.1.18.17.32.08.14.12.21.12.22v-1.66h.29v2.14h-.29l-.76-1.24c-.06-.1-.12-.2-.19-.32-.06-.11-.1-.18-.12-.22v1.78h-.28v-2.14h.33"/>
  <path class="st12" d="M185.49,148.39l-1.24,2.74"/>
  <path class="st2" d="M184.25,151.12l-1.22,2.74"/>
  <path class="st12" d="M184.52,147.97l-1.22,2.72"/>
  <path class="st2" d="M183.29,150.68l-1.24,2.74"/>
  <path class="st2" d="M182.66,153.36l4.13,5.76"/>
  <path class="st2" d="M186.79,159.12l7.06-.71"/>
  <path class="st2" d="M193.86,158.42l4.15,5.74"/>
  <path class="st2" d="M195.08,158.28l3.43,4.77"/>
  <path class="st2" d="M198.01,164.16l7.04-.71"/>
  <path class="st2" d="M205.05,163.45l2.93-6.45"/>
  <path class="st2" d="M204.35,162.45l2.41-5.34"/>
  <path class="st2" d="M207.98,157l3.06-.31"/>
  <path class="st5" d="M211.04,156.69l3.06-.31"/>
  <path class="st2" d="M207.98,157l-4.15-5.76"/>
  <path class="st2" d="M203.83,151.24l-7.04.71"/>
  <path class="st2" d="M203.33,152.35l-5.84.59"/>
  <path class="st2" d="M182.66,153.36l-3.02.31"/>
  <path class="st8" d="M179.64,153.67l-3.04.31"/>
  <path class="st8" d="M174.72,152.83l-1.63-2.26"/>
  <path class="st2" d="M173.09,150.57l-1.63-2.26"/>
  <path class="st2" d="M171.46,148.31l-7.06.71"/>
  <path class="st2" d="M164.4,149.02l-1.17,2.62"/>
  <path class="st8" d="M163.24,151.64l-1.19,2.6"/>
  <path class="st8" d="M160.5,155.58l-3.02.31"/>
  <path class="st2" d="M157.47,155.89l-3.04.31"/>
  <path class="st2" d="M154.43,156.2l-4.13-5.76"/>
  <path class="st2" d="M153.21,156.31l-3.41-4.77"/>
  <path class="st2" d="M150.3,150.43l-7.06.71"/>
  <path class="st2" d="M143.24,151.14l-2.91,6.47"/>
  <path class="st2" d="M143.96,152.14l-2.41,5.34"/>
  <path class="st2" d="M140.33,157.61l-3.08.31"/>
  <path class="st5" d="M137.25,157.92l-3.06.31"/>
  <path class="st2" d="M140.33,157.61l1.63,2.26"/>
  <path class="st8" d="M141.95,159.87l1.63,2.26"/>
  <path class="st8" d="M145.46,163.26l5.07-.5"/>
  <path class="st8" d="M145.36,162.21l5.05-.52"/>
  <path class="st8" d="M162.39,156.71l1.61,2.28"/>
  <path class="st2" d="M164,158.99l1.63,2.26"/>
  <path class="st2" d="M165.63,161.25l7.06-.71"/>
  <path class="st2" d="M196.79,151.95l-2.93,6.47"/>
  <path class="st2" d="M172.69,160.54l1.19-2.62"/>
  <path class="st8" d="M173.88,157.92l1.17-2.6"/>
  <path class="st8" d="M152.08,161.42l1.19-2.62"/>
  <path class="st2" d="M153.26,158.8l1.17-2.6"/>
  <path class="st2" d="M182.87,153.65l-.21-.29-.15.02"/>
  <path class="st2" d="M186.6,158.84l.19.29.36-.04"/>
  <path class="st2" d="M197.8,163.87l.21.29.34-.02"/>
  <path class="st2" d="M204.71,163.49l.34-.04.15-.31"/>
  <path class="st2" d="M204.04,151.53l-.21-.29-.34.04"/>
  <path class="st2" d="M197.13,151.91l-.34.04-.15.33"/>
  <path class="st2" d="M171.54,148.43l-.08-.11-.34.04"/>
  <path class="st2" d="M164.77,148.98l-.36.04-.06.13"/>
  <path class="st2" d="M150.51,150.72l-.21-.29-.34.04"/>
  <path class="st2" d="M143.6,151.1l-.36.04-.13.33"/>
  <path class="st2" d="M165.55,161.13l.08.11.36-.04"/>
  <path class="st2" d="M172.35,160.56l.34-.02.06-.13"/>
  <path class="st17" d="M184.65,146.89c0-.32.08-.57.25-.75.15-.18.38-.27.67-.27s.54.09.69.27c.17.18.25.43.25.75s-.08.59-.25.77c-.17.19-.4.29-.69.29s-.52-.1-.67-.29c-.17-.18-.25-.43-.25-.77M185.57,147.72c.2,0,.36-.07.48-.21.11-.14.17-.34.17-.61s-.06-.45-.17-.59c-.11-.13-.27-.19-.48-.19-.2,0-.36.06-.46.19-.11.14-.17.34-.17.59,0,.28.06.48.17.61.1.14.26.21.46.21"/>
  <path class="st18" d="M215.43,157.29l-.5-.82h-.33v.82h-.27v-1.99h.59c.23,0,.4.05.52.15.11.1.17.24.17.42,0,.14-.03.26-.1.36-.08.09-.18.15-.31.19l.5.86h-.29M214.6,156.23h.33c.13,0,.23-.03.31-.08.06-.06.1-.16.1-.29,0-.11-.03-.2-.1-.27-.06-.06-.17-.1-.31-.1h-.33v.73"/>
  <path class="st18" d="M216.02,157.08h.44v-1.51l-.48.15-.06-.17.61-.27.19.04v1.76h.4v.21h-1.11v-.21"/>
  <path class="st14" d="M175.16,153.06l.67,1.07c.04.06.1.16.17.29.06.13.1.2.1.21v-1.57h.27v2.01h-.27l-.71-1.15c-.05-.1-.11-.2-.17-.31-.05-.1-.09-.17-.11-.19v1.65h-.25v-2.01h.31"/>
  <path class="st14" d="M161.05,154.47l.65,1.07c.05.06.11.16.17.29.08.13.11.2.11.21v-1.57h.27v2.01h-.29l-.69-1.17c-.06-.09-.12-.19-.17-.29-.06-.1-.1-.17-.11-.19v1.65h-.27v-2.01h.33"/>
  <path class="st18" d="M132.1,159.33l-.5-.82h-.33v.82h-.27v-2.01h.59c.23,0,.4.05.52.15.11.1.17.25.17.44,0,.14-.03.26-.1.34-.08.1-.18.17-.31.21l.5.86h-.29M131.27,158.28h.33c.13,0,.23-.03.31-.1.06-.06.1-.15.1-.27,0-.13-.03-.22-.1-.27-.08-.06-.18-.1-.31-.1h-.33v.73"/>
  <path class="st18" d="M132.59,157.71c.05-.13.13-.23.25-.31.11-.06.26-.1.42-.1.2,0,.36.05.48.15.11.11.17.27.17.46,0,.2-.08.4-.23.57-.14.19-.36.4-.67.61h.94v.23h-1.36v-.19c.24-.18.44-.33.59-.46.15-.14.26-.27.33-.38.08-.11.11-.24.11-.36s-.03-.23-.1-.31c-.06-.06-.15-.1-.27-.1-.1,0-.19.02-.27.06-.08.04-.14.11-.19.21l-.21-.1"/>
  <path class="st14" d="M144.02,162.36l.67,1.07c.04.06.09.16.15.29.08.13.11.2.11.21v-1.57h.27v2.01h-.27l-.71-1.17c-.05-.09-.11-.19-.17-.29-.06-.1-.1-.17-.11-.21v1.67h-.25v-2.01h.31"/>
  <path class="st14" d="M151.08,161.65l.65,1.07c.05.06.11.16.17.29.08.13.11.2.11.21v-1.57h.27v2.01h-.29l-.69-1.17c-.06-.09-.12-.19-.17-.29-.06-.1-.1-.17-.11-.21v1.67h-.27v-2.01h.33"/>
</svg>