<?xml version="1.0" encoding="UTF-8"?>
<svg id="_图层_1" data-name="图层_1" xmlns="http://www.w3.org/2000/svg" xmlns:xlink="http://www.w3.org/1999/xlink" version="1.1" viewBox="0 0 240.94 178.58">
  <!-- Generator: Adobe Illustrator 29.3.1, SVG Export Plug-In . SVG Version: 2.1.0 Build 151)  -->
  <defs>
    <style>
      .st0, .st1, .st2, .st3, .st4, .st5, .st6, .st7, .st8, .st9 {
        fill: none;
      }

      .st1 {
        stroke: #ccc;
        stroke-width: .51px;
      }

      .st1, .st10 {
        opacity: .8;
      }

      .st1, .st2, .st9 {
        stroke-miterlimit: 10;
      }

      .st10, .st11 {
        fill: #fff;
      }

      .st2, .st4, .st6, .st7, .st8 {
        stroke: #3d3d3d;
      }

      .st2, .st6 {
        stroke-width: .63px;
      }

      .st3 {
        stroke: #fff;
        stroke-width: .57px;
      }

      .st3, .st4, .st5, .st6, .st7, .st8 {
        stroke-linejoin: round;
      }

      .st4 {
        stroke-width: 2.85px;
      }

      .st4, .st7, .st8, .st9 {
        stroke-linecap: square;
      }

      .st5, .st9 {
        stroke: #000;
        stroke-width: .41px;
      }

      .st12 {
        clip-path: url(#clippath-17);
      }

      .st13 {
        clip-path: url(#clippath-19);
      }

      .st14 {
        clip-path: url(#clippath-11);
      }

      .st15 {
        clip-path: url(#clippath-16);
      }

      .st16 {
        clip-path: url(#clippath-18);
      }

      .st17 {
        clip-path: url(#clippath-10);
      }

      .st18 {
        clip-path: url(#clippath-15);
      }

      .st19 {
        clip-path: url(#clippath-13);
      }

      .st20 {
        clip-path: url(#clippath-14);
      }

      .st21 {
        clip-path: url(#clippath-12);
      }

      .st22 {
        clip-path: url(#clippath-31);
      }

      .st23 {
        clip-path: url(#clippath-32);
      }

      .st24 {
        clip-path: url(#clippath-33);
      }

      .st25 {
        clip-path: url(#clippath-34);
      }

      .st26 {
        clip-path: url(#clippath-35);
      }

      .st27 {
        clip-path: url(#clippath-39);
      }

      .st28 {
        clip-path: url(#clippath-30);
      }

      .st29 {
        clip-path: url(#clippath-36);
      }

      .st30 {
        clip-path: url(#clippath-37);
      }

      .st31 {
        clip-path: url(#clippath-38);
      }

      .st32 {
        clip-path: url(#clippath-27);
      }

      .st33 {
        clip-path: url(#clippath-29);
      }

      .st34 {
        clip-path: url(#clippath-26);
      }

      .st35 {
        clip-path: url(#clippath-28);
      }

      .st36 {
        clip-path: url(#clippath-20);
      }

      .st37 {
        clip-path: url(#clippath-21);
      }

      .st38 {
        clip-path: url(#clippath-22);
      }

      .st39 {
        clip-path: url(#clippath-23);
      }

      .st40 {
        clip-path: url(#clippath-24);
      }

      .st41 {
        clip-path: url(#clippath-25);
      }

      .st42 {
        clip-path: url(#clippath-41);
      }

      .st43 {
        clip-path: url(#clippath-42);
      }

      .st44 {
        clip-path: url(#clippath-43);
      }

      .st45 {
        clip-path: url(#clippath-44);
      }

      .st46 {
        clip-path: url(#clippath-40);
      }

      .st47 {
        clip-path: url(#clippath-1);
      }

      .st48 {
        clip-path: url(#clippath-3);
      }

      .st49 {
        clip-path: url(#clippath-4);
      }

      .st50 {
        clip-path: url(#clippath-2);
      }

      .st51 {
        clip-path: url(#clippath-7);
      }

      .st52 {
        clip-path: url(#clippath-6);
      }

      .st53 {
        clip-path: url(#clippath-9);
      }

      .st54 {
        clip-path: url(#clippath-8);
      }

      .st55 {
        clip-path: url(#clippath-5);
      }

      .st56 {
        fill: #3274a1;
      }

      .st57 {
        fill: #e1812c;
      }

      .st58 {
        fill: #3b913b;
      }

      .st7 {
        stroke-width: .95px;
      }

      .st8 {
        stroke-width: .76px;
      }

      .st59 {
        clip-path: url(#clippath);
      }
    </style>
    <clipPath id="clippath">
      <rect class="st0" x="30.27" y="8.31" width="199.28" height="153.66"/>
    </clipPath>
    <clipPath id="clippath-1">
      <rect class="st0" x="30.27" y="8.31" width="199.28" height="153.66"/>
    </clipPath>
    <clipPath id="clippath-2">
      <rect class="st0" x="30.27" y="8.31" width="199.28" height="153.66"/>
    </clipPath>
    <clipPath id="clippath-3">
      <rect class="st0" x="30.27" y="8.31" width="199.28" height="153.66"/>
    </clipPath>
    <clipPath id="clippath-4">
      <rect class="st0" x="30.27" y="8.31" width="199.28" height="153.66"/>
    </clipPath>
    <clipPath id="clippath-5">
      <rect class="st0" x="30.27" y="8.31" width="199.28" height="153.66"/>
    </clipPath>
    <clipPath id="clippath-6">
      <rect class="st0" x="30.27" y="8.31" width="199.28" height="153.66"/>
    </clipPath>
    <clipPath id="clippath-7">
      <rect class="st0" x="30.27" y="8.31" width="199.28" height="153.66"/>
    </clipPath>
    <clipPath id="clippath-8">
      <rect class="st0" x="30.27" y="8.31" width="199.28" height="153.66"/>
    </clipPath>
    <clipPath id="clippath-9">
      <rect class="st0" x="30.27" y="8.31" width="199.28" height="153.66"/>
    </clipPath>
    <clipPath id="clippath-10">
      <rect class="st0" x="30.27" y="8.31" width="199.28" height="153.66"/>
    </clipPath>
    <clipPath id="clippath-11">
      <rect class="st0" x="30.27" y="8.31" width="199.28" height="153.66"/>
    </clipPath>
    <clipPath id="clippath-12">
      <rect class="st0" x="10.87" y="134.63" width="14.26" height="8.59"/>
    </clipPath>
    <clipPath id="clippath-13">
      <rect class="st0" x="10.87" y="111.45" width="14.26" height="8.59"/>
    </clipPath>
    <clipPath id="clippath-14">
      <rect class="st0" x="14.09" y="88.26" width="14.26" height="8.59"/>
    </clipPath>
    <clipPath id="clippath-15">
      <rect class="st0" x="14.09" y="65.08" width="14.26" height="8.59"/>
    </clipPath>
    <clipPath id="clippath-16">
      <rect class="st0" x="14.09" y="41.9" width="14.26" height="8.59"/>
    </clipPath>
    <clipPath id="clippath-17">
      <rect class="st0" x="14.09" y="18.72" width="14.26" height="8.59"/>
    </clipPath>
    <clipPath id="clippath-18">
      <rect class="st0" x="30.27" y="8.31" width="199.28" height="153.66"/>
    </clipPath>
    <clipPath id="clippath-19">
      <rect class="st0" x="30.27" y="8.31" width="199.28" height="153.66"/>
    </clipPath>
    <clipPath id="clippath-20">
      <rect class="st0" x="30.27" y="8.31" width="199.28" height="153.66"/>
    </clipPath>
    <clipPath id="clippath-21">
      <rect class="st0" x="30.27" y="8.31" width="199.28" height="153.66"/>
    </clipPath>
    <clipPath id="clippath-22">
      <rect class="st0" x="30.27" y="8.31" width="199.28" height="153.66"/>
    </clipPath>
    <clipPath id="clippath-23">
      <rect class="st0" x="30.27" y="8.31" width="199.28" height="153.66"/>
    </clipPath>
    <clipPath id="clippath-24">
      <rect class="st0" x="30.27" y="8.31" width="199.28" height="153.66"/>
    </clipPath>
    <clipPath id="clippath-25">
      <rect class="st0" x="30.27" y="8.31" width="199.28" height="153.66"/>
    </clipPath>
    <clipPath id="clippath-26">
      <rect class="st0" x="30.27" y="8.31" width="199.28" height="153.66"/>
    </clipPath>
    <clipPath id="clippath-27">
      <rect class="st0" x="30.27" y="8.31" width="199.28" height="153.66"/>
    </clipPath>
    <clipPath id="clippath-28">
      <rect class="st0" x="30.27" y="8.31" width="199.28" height="153.66"/>
    </clipPath>
    <clipPath id="clippath-29">
      <rect class="st0" x="30.27" y="8.31" width="199.28" height="153.66"/>
    </clipPath>
    <clipPath id="clippath-30">
      <rect class="st0" x="30.27" y="8.31" width="199.28" height="153.66"/>
    </clipPath>
    <clipPath id="clippath-31">
      <rect class="st0" x="30.27" y="8.31" width="199.28" height="153.66"/>
    </clipPath>
    <clipPath id="clippath-32">
      <rect class="st0" x="30.27" y="8.31" width="199.28" height="153.66"/>
    </clipPath>
    <clipPath id="clippath-33">
      <rect class="st0" x="30.27" y="8.31" width="199.28" height="153.66"/>
    </clipPath>
    <clipPath id="clippath-34">
      <rect class="st0" x="30.27" y="8.31" width="199.28" height="153.66"/>
    </clipPath>
    <clipPath id="clippath-35">
      <rect class="st0" x="30.27" y="8.31" width="199.28" height="153.66"/>
    </clipPath>
    <clipPath id="clippath-36">
      <rect class="st0" x="30.27" y="8.31" width="199.28" height="153.66"/>
    </clipPath>
    <clipPath id="clippath-37">
      <rect class="st0" x="30.27" y="8.31" width="199.28" height="153.66"/>
    </clipPath>
    <clipPath id="clippath-38">
      <rect class="st0" x="30.27" y="8.31" width="199.28" height="153.66"/>
    </clipPath>
    <clipPath id="clippath-39">
      <rect class="st0" x="30.27" y="8.31" width="199.28" height="153.66"/>
    </clipPath>
    <clipPath id="clippath-40">
      <rect class="st0" x="30.27" y="8.31" width="199.28" height="153.66"/>
    </clipPath>
    <clipPath id="clippath-41">
      <rect class="st0" x="30.27" y="8.31" width="199.28" height="153.66"/>
    </clipPath>
    <clipPath id="clippath-42">
      <rect class="st0" x="30.27" y="8.31" width="199.28" height="153.66"/>
    </clipPath>
    <clipPath id="clippath-43">
      <rect class="st0" x="30.27" y="8.31" width="199.28" height="153.66"/>
    </clipPath>
    <clipPath id="clippath-44">
      <rect class="st0" x="30.27" y="8.31" width="199.28" height="153.66"/>
    </clipPath>
  </defs>
  <rect class="st11" x="1.58" y="2.84" width="233.44" height="175.08"/>
  <rect class="st11" x="30.27" y="8.31" width="199.28" height="153.66"/>
  <g class="st59">
    <polygon class="st56" points="45.78 136.14 45.76 136.14 45.76 134.94 45.75 133.74 45.74 132.53 45.73 131.33 45.72 130.13 45.7 128.92 45.68 127.72 45.65 126.52 45.6 125.31 45.55 124.11 45.46 122.91 45.34 121.7 45.18 120.5 44.97 119.3 44.69 118.09 44.35 116.89 43.94 115.69 43.48 114.48 42.99 113.28 42.47 112.08 41.96 110.87 41.46 109.67 41.01 108.47 40.61 107.26 40.27 106.06 39.98 104.86 39.75 103.65 39.58 102.45 39.45 101.25 39.36 100.04 39.3 98.84 39.27 97.64 39.26 96.43 39.27 95.23 39.29 94.03 39.32 92.82 39.37 91.62 39.41 90.42 39.47 89.21 39.54 88.01 39.61 86.81 39.71 85.6 39.82 84.4 39.96 83.2 40.12 81.99 40.3 80.79 40.5 79.59 40.7 78.38 40.89 77.18 41.05 75.98 41.18 74.77 41.28 73.57 41.34 72.37 41.37 71.16 41.39 69.96 41.42 68.76 41.46 67.55 41.51 66.35 41.6 65.15 41.7 63.94 41.84 62.74 41.99 61.54 42.18 60.33 42.39 59.13 42.63 57.93 42.89 56.72 43.18 55.52 43.48 54.32 43.78 53.11 44.08 51.91 44.36 50.71 44.62 49.5 44.85 48.3 45.04 47.1 45.21 45.89 45.34 44.69 45.45 43.49 45.53 42.28 45.59 41.08 45.63 39.88 45.66 38.67 45.68 37.47 45.68 36.27 45.68 35.06 45.68 33.86 45.67 32.66 45.66 31.45 45.66 30.25 45.66 29.05 45.66 27.84 45.67 26.64 45.68 25.44 45.7 24.23 45.71 23.03 45.73 21.83 45.74 20.62 45.75 19.42 45.76 18.22 45.76 17.01 45.78 17.01 45.79 18.22 45.79 19.42 45.81 20.62 45.82 21.83 45.83 23.03 45.85 24.23 45.86 25.44 45.87 26.64 45.88 27.84 45.89 29.05 45.89 30.25 45.88 31.45 45.87 32.66 45.87 33.86 45.86 35.06 45.86 36.27 45.86 37.47 45.88 38.67 45.91 39.88 45.95 41.08 46.01 42.28 46.1 43.49 46.2 44.69 46.34 45.89 46.5 47.1 46.69 48.3 46.92 49.5 47.18 50.71 47.46 51.91 47.76 53.11 48.07 54.32 48.37 55.52 48.65 56.72 48.92 57.93 49.15 59.13 49.37 60.33 49.55 61.54 49.71 62.74 49.84 63.94 49.95 65.15 50.03 66.35 50.09 67.55 50.12 68.76 50.15 69.96 50.17 71.16 50.21 72.37 50.27 73.57 50.36 74.77 50.49 75.98 50.66 77.18 50.85 78.38 51.05 79.59 51.24 80.79 51.43 81.99 51.59 83.2 51.72 84.4 51.84 85.6 51.93 86.81 52.01 88.01 52.07 89.21 52.13 90.42 52.18 91.62 52.22 92.82 52.25 94.03 52.28 95.23 52.29 96.43 52.28 97.64 52.25 98.84 52.19 100.04 52.1 101.25 51.97 102.45 51.79 103.65 51.56 104.86 51.28 106.06 50.93 107.26 50.53 108.47 50.08 109.67 49.59 110.87 49.07 112.08 48.56 113.28 48.06 114.48 47.6 115.69 47.2 116.89 46.85 118.09 46.58 119.3 46.36 120.5 46.2 121.7 46.08 122.91 46 124.11 45.94 125.31 45.9 126.52 45.87 127.72 45.84 128.92 45.83 130.13 45.81 131.33 45.8 132.53 45.79 133.74 45.79 134.94 45.78 136.14"/>
    <polygon class="st6" points="45.78 136.14 45.76 136.14 45.76 134.94 45.75 133.74 45.74 132.53 45.73 131.33 45.72 130.13 45.7 128.92 45.68 127.72 45.65 126.52 45.6 125.31 45.55 124.11 45.46 122.91 45.34 121.7 45.18 120.5 44.97 119.3 44.69 118.09 44.35 116.89 43.94 115.69 43.48 114.48 42.99 113.28 42.47 112.08 41.96 110.87 41.46 109.67 41.01 108.47 40.61 107.26 40.27 106.06 39.98 104.86 39.75 103.65 39.58 102.45 39.45 101.25 39.36 100.04 39.3 98.84 39.27 97.64 39.26 96.43 39.27 95.23 39.29 94.03 39.32 92.82 39.37 91.62 39.41 90.42 39.47 89.21 39.54 88.01 39.61 86.81 39.71 85.6 39.82 84.4 39.96 83.2 40.12 81.99 40.3 80.79 40.5 79.59 40.7 78.38 40.89 77.18 41.05 75.98 41.18 74.77 41.28 73.57 41.34 72.37 41.37 71.16 41.39 69.96 41.42 68.76 41.46 67.55 41.51 66.35 41.6 65.15 41.7 63.94 41.84 62.74 41.99 61.54 42.18 60.33 42.39 59.13 42.63 57.93 42.89 56.72 43.18 55.52 43.48 54.32 43.78 53.11 44.08 51.91 44.36 50.71 44.62 49.5 44.85 48.3 45.04 47.1 45.21 45.89 45.34 44.69 45.45 43.49 45.53 42.28 45.59 41.08 45.63 39.88 45.66 38.67 45.68 37.47 45.68 36.27 45.68 35.06 45.68 33.86 45.67 32.66 45.66 31.45 45.66 30.25 45.66 29.05 45.66 27.84 45.67 26.64 45.68 25.44 45.7 24.23 45.71 23.03 45.73 21.83 45.74 20.62 45.75 19.42 45.76 18.22 45.76 17.01 45.78 17.01 45.79 18.22 45.79 19.42 45.81 20.62 45.82 21.83 45.83 23.03 45.85 24.23 45.86 25.44 45.87 26.64 45.88 27.84 45.89 29.05 45.89 30.25 45.88 31.45 45.87 32.66 45.87 33.86 45.86 35.06 45.86 36.27 45.86 37.47 45.88 38.67 45.91 39.88 45.95 41.08 46.01 42.28 46.1 43.49 46.2 44.69 46.34 45.89 46.5 47.1 46.69 48.3 46.92 49.5 47.18 50.71 47.46 51.91 47.76 53.11 48.07 54.32 48.37 55.52 48.65 56.72 48.92 57.93 49.15 59.13 49.37 60.33 49.55 61.54 49.71 62.74 49.84 63.94 49.95 65.15 50.03 66.35 50.09 67.55 50.12 68.76 50.15 69.96 50.17 71.16 50.21 72.37 50.27 73.57 50.36 74.77 50.49 75.98 50.66 77.18 50.85 78.38 51.05 79.59 51.24 80.79 51.43 81.99 51.59 83.2 51.72 84.4 51.84 85.6 51.93 86.81 52.01 88.01 52.07 89.21 52.13 90.42 52.18 91.62 52.22 92.82 52.25 94.03 52.28 95.23 52.29 96.43 52.28 97.64 52.25 98.84 52.19 100.04 52.1 101.25 51.97 102.45 51.79 103.65 51.56 104.86 51.28 106.06 50.93 107.26 50.53 108.47 50.08 109.67 49.59 110.87 49.07 112.08 48.56 113.28 48.06 114.48 47.6 115.69 47.2 116.89 46.85 118.09 46.58 119.3 46.36 120.5 46.2 121.7 46.08 122.91 46 124.11 45.94 125.31 45.9 126.52 45.87 127.72 45.84 128.92 45.83 130.13 45.81 131.33 45.8 132.53 45.79 133.74 45.79 134.94 45.78 136.14"/>
  </g>
  <g class="st47">
    <polygon class="st57" points="63.49 142.81 63.48 142.81 63.48 141.55 63.47 140.28 63.46 139.01 63.44 137.75 63.43 136.48 63.4 135.21 63.38 133.94 63.36 132.68 63.32 131.41 63.29 130.14 63.23 128.88 63.17 127.61 63.09 126.34 62.98 125.07 62.85 123.81 62.68 122.54 62.48 121.27 62.23 120.01 61.95 118.74 61.62 117.47 61.24 116.2 60.8 114.94 60.3 113.67 59.76 112.4 59.19 111.14 58.62 109.87 58.08 108.6 57.57 107.33 57.12 106.07 56.75 104.8 56.48 103.53 56.31 102.27 56.23 101 56.23 99.73 56.29 98.46 56.37 97.2 56.49 95.93 56.65 94.66 56.86 93.4 57.12 92.13 57.42 90.86 57.74 89.6 58.08 88.33 58.42 87.06 58.77 85.79 59.1 84.53 59.42 83.26 59.73 81.99 60.01 80.73 60.27 79.46 60.51 78.19 60.71 76.92 60.89 75.66 61.03 74.39 61.15 73.12 61.24 71.86 61.32 70.59 61.38 69.32 61.43 68.05 61.48 66.79 61.52 65.52 61.54 64.25 61.57 62.99 61.59 61.72 61.61 60.45 61.66 59.18 61.72 57.92 61.8 56.65 61.9 55.38 62.01 54.12 62.13 52.85 62.25 51.58 62.37 50.31 62.48 49.05 62.59 47.78 62.69 46.51 62.77 45.25 62.84 43.98 62.91 42.71 62.96 41.45 63.02 40.18 63.06 38.91 63.11 37.64 63.15 36.38 63.19 35.11 63.22 33.84 63.26 32.58 63.29 31.31 63.32 30.04 63.35 28.77 63.38 27.51 63.4 26.24 63.42 24.97 63.44 23.71 63.46 22.44 63.47 21.17 63.47 19.9 63.48 18.64 63.48 17.37 63.49 17.37 63.49 18.64 63.5 19.9 63.5 21.17 63.51 22.44 63.53 23.71 63.55 24.97 63.57 26.24 63.59 27.51 63.62 28.77 63.65 30.04 63.68 31.31 63.71 32.58 63.75 33.84 63.79 35.11 63.82 36.38 63.86 37.64 63.91 38.91 63.95 40.18 64.01 41.45 64.06 42.71 64.13 43.98 64.2 45.25 64.28 46.51 64.38 47.78 64.49 49.05 64.6 50.31 64.72 51.58 64.84 52.85 64.96 54.12 65.07 55.38 65.17 56.65 65.25 57.92 65.31 59.18 65.36 60.45 65.38 61.72 65.4 62.99 65.43 64.25 65.45 65.52 65.49 66.79 65.54 68.05 65.59 69.32 65.65 70.59 65.73 71.86 65.82 73.12 65.94 74.39 66.08 75.66 66.26 76.92 66.46 78.19 66.7 79.46 66.96 80.73 67.24 81.99 67.55 83.26 67.87 84.53 68.2 85.79 68.55 87.06 68.89 88.33 69.23 89.6 69.55 90.86 69.85 92.13 70.11 93.4 70.32 94.66 70.48 95.93 70.6 97.2 70.69 98.46 70.74 99.73 70.74 101 70.66 102.27 70.49 103.53 70.22 104.8 69.85 106.07 69.4 107.33 68.89 108.6 68.35 109.87 67.78 111.14 67.21 112.4 66.67 113.67 66.17 114.94 65.73 116.2 65.35 117.47 65.02 118.74 64.74 120.01 64.49 121.27 64.29 122.54 64.12 123.81 63.99 125.07 63.88 126.34 63.8 127.61 63.74 128.88 63.69 130.14 63.65 131.41 63.61 132.68 63.59 133.94 63.57 135.21 63.55 136.48 63.53 137.75 63.51 139.01 63.5 140.28 63.49 141.55 63.49 142.81"/>
    <polygon class="st6" points="63.49 142.81 63.48 142.81 63.48 141.55 63.47 140.28 63.46 139.01 63.44 137.75 63.43 136.48 63.4 135.21 63.38 133.94 63.36 132.68 63.32 131.41 63.29 130.14 63.23 128.88 63.17 127.61 63.09 126.34 62.98 125.07 62.85 123.81 62.68 122.54 62.48 121.27 62.23 120.01 61.95 118.74 61.62 117.47 61.24 116.2 60.8 114.94 60.3 113.67 59.76 112.4 59.19 111.14 58.62 109.87 58.08 108.6 57.57 107.33 57.12 106.07 56.75 104.8 56.48 103.53 56.31 102.27 56.23 101 56.23 99.73 56.29 98.46 56.37 97.2 56.49 95.93 56.65 94.66 56.86 93.4 57.12 92.13 57.42 90.86 57.74 89.6 58.08 88.33 58.42 87.06 58.77 85.79 59.1 84.53 59.42 83.26 59.73 81.99 60.01 80.73 60.27 79.46 60.51 78.19 60.71 76.92 60.89 75.66 61.03 74.39 61.15 73.12 61.24 71.86 61.32 70.59 61.38 69.32 61.43 68.05 61.48 66.79 61.52 65.52 61.54 64.25 61.57 62.99 61.59 61.72 61.61 60.45 61.66 59.18 61.72 57.92 61.8 56.65 61.9 55.38 62.01 54.12 62.13 52.85 62.25 51.58 62.37 50.31 62.48 49.05 62.59 47.78 62.69 46.51 62.77 45.25 62.84 43.98 62.91 42.71 62.96 41.45 63.02 40.18 63.06 38.91 63.11 37.64 63.15 36.38 63.19 35.11 63.22 33.84 63.26 32.58 63.29 31.31 63.32 30.04 63.35 28.77 63.38 27.51 63.4 26.24 63.42 24.97 63.44 23.71 63.46 22.44 63.47 21.17 63.47 19.9 63.48 18.64 63.48 17.37 63.49 17.37 63.49 18.64 63.5 19.9 63.5 21.17 63.51 22.44 63.53 23.71 63.55 24.97 63.57 26.24 63.59 27.51 63.62 28.77 63.65 30.04 63.68 31.31 63.71 32.58 63.75 33.84 63.79 35.11 63.82 36.38 63.86 37.64 63.91 38.91 63.95 40.18 64.01 41.45 64.06 42.71 64.13 43.98 64.2 45.25 64.28 46.51 64.38 47.78 64.49 49.05 64.6 50.31 64.72 51.58 64.84 52.85 64.96 54.12 65.07 55.38 65.17 56.65 65.25 57.92 65.31 59.18 65.36 60.45 65.38 61.72 65.4 62.99 65.43 64.25 65.45 65.52 65.49 66.79 65.54 68.05 65.59 69.32 65.65 70.59 65.73 71.86 65.82 73.12 65.94 74.39 66.08 75.66 66.26 76.92 66.46 78.19 66.7 79.46 66.96 80.73 67.24 81.99 67.55 83.26 67.87 84.53 68.2 85.79 68.55 87.06 68.89 88.33 69.23 89.6 69.55 90.86 69.85 92.13 70.11 93.4 70.32 94.66 70.48 95.93 70.6 97.2 70.69 98.46 70.74 99.73 70.74 101 70.66 102.27 70.49 103.53 70.22 104.8 69.85 106.07 69.4 107.33 68.89 108.6 68.35 109.87 67.78 111.14 67.21 112.4 66.67 113.67 66.17 114.94 65.73 116.2 65.35 117.47 65.02 118.74 64.74 120.01 64.49 121.27 64.29 122.54 64.12 123.81 63.99 125.07 63.88 126.34 63.8 127.61 63.74 128.88 63.69 130.14 63.65 131.41 63.61 132.68 63.59 133.94 63.57 135.21 63.55 136.48 63.53 137.75 63.51 139.01 63.5 140.28 63.49 141.55 63.49 142.81"/>
  </g>
  <g class="st50">
    <polygon class="st58" points="81.2 154.98 81.19 154.98 81.19 153.7 81.18 152.42 81.17 151.14 81.15 149.86 81.12 148.58 81.07 147.3 81 146.02 80.91 144.74 80.8 143.46 80.66 142.18 80.5 140.9 80.34 139.62 80.19 138.34 80.04 137.06 79.9 135.78 79.75 134.5 79.57 133.22 79.36 131.94 79.12 130.66 78.84 129.38 78.52 128.1 78.16 126.82 77.75 125.54 77.31 124.26 76.86 122.98 76.41 121.7 75.97 120.42 75.55 119.14 75.12 117.86 74.68 116.58 74.22 115.3 73.77 114.02 73.34 112.74 72.98 111.46 72.7 110.18 72.53 108.9 72.47 107.62 72.51 106.34 72.64 105.06 72.81 103.78 72.99 102.5 73.15 101.22 73.29 99.94 73.42 98.66 73.59 97.39 73.81 96.11 74.13 94.83 74.55 93.55 75.06 92.27 75.63 90.99 76.22 89.71 76.81 88.43 77.35 87.15 77.83 85.87 78.25 84.59 78.62 83.31 78.94 82.03 79.22 80.75 79.46 79.47 79.65 78.19 79.8 76.91 79.92 75.63 80 74.35 80.07 73.07 80.14 71.79 80.22 70.51 80.29 69.23 80.35 67.95 80.41 66.67 80.45 65.39 80.49 64.11 80.53 62.83 80.57 61.55 80.62 60.27 80.67 58.99 80.72 57.71 80.75 56.43 80.77 55.15 80.79 53.87 80.81 52.59 80.84 51.31 80.88 50.03 80.93 48.75 80.97 47.47 81 46.19 81.03 44.91 81.04 43.63 81.05 42.35 81.06 41.07 81.08 39.79 81.09 38.51 81.1 37.23 81.12 35.95 81.14 34.67 81.16 33.39 81.17 32.11 81.18 30.83 81.19 29.55 81.19 28.27 81.2 28.27 81.21 29.55 81.22 30.83 81.23 32.11 81.24 33.39 81.26 34.67 81.28 35.95 81.29 37.23 81.31 38.51 81.32 39.79 81.33 41.07 81.34 42.35 81.35 43.63 81.37 44.91 81.4 46.19 81.43 47.47 81.47 48.75 81.51 50.03 81.55 51.31 81.58 52.59 81.61 53.87 81.63 55.15 81.65 56.43 81.68 57.71 81.72 58.99 81.77 60.27 81.83 61.55 81.87 62.83 81.91 64.11 81.95 65.39 81.99 66.67 82.04 67.95 82.11 69.23 82.18 70.51 82.25 71.79 82.32 73.07 82.4 74.35 82.48 75.63 82.59 76.91 82.74 78.19 82.94 79.47 83.18 80.75 83.46 82.03 83.78 83.31 84.14 84.59 84.57 85.87 85.05 87.15 85.59 88.43 86.17 89.71 86.77 90.99 87.34 92.27 87.85 93.55 88.26 94.83 88.58 96.11 88.81 97.39 88.98 98.66 89.11 99.94 89.25 101.22 89.41 102.5 89.59 103.78 89.76 105.06 89.88 106.34 89.93 107.62 89.86 108.9 89.69 110.18 89.42 111.46 89.05 112.74 88.63 114.02 88.17 115.3 87.72 116.58 87.28 117.86 86.85 119.14 86.43 120.42 85.99 121.7 85.54 122.98 85.09 124.26 84.65 125.54 84.24 126.82 83.88 128.1 83.56 129.38 83.28 130.66 83.04 131.94 82.83 133.22 82.65 134.5 82.5 135.78 82.35 137.06 82.21 138.34 82.06 139.62 81.9 140.9 81.74 142.18 81.6 143.46 81.48 144.74 81.39 146.02 81.33 147.3 81.28 148.58 81.25 149.86 81.23 151.14 81.21 152.42 81.21 153.7 81.2 154.98"/>
    <polygon class="st6" points="81.2 154.98 81.19 154.98 81.19 153.7 81.18 152.42 81.17 151.14 81.15 149.86 81.12 148.58 81.07 147.3 81 146.02 80.91 144.74 80.8 143.46 80.66 142.18 80.5 140.9 80.34 139.62 80.19 138.34 80.04 137.06 79.9 135.78 79.75 134.5 79.57 133.22 79.36 131.94 79.12 130.66 78.84 129.38 78.52 128.1 78.16 126.82 77.75 125.54 77.31 124.26 76.86 122.98 76.41 121.7 75.97 120.42 75.55 119.14 75.12 117.86 74.68 116.58 74.22 115.3 73.77 114.02 73.34 112.74 72.98 111.46 72.7 110.18 72.53 108.9 72.47 107.62 72.51 106.34 72.64 105.06 72.81 103.78 72.99 102.5 73.15 101.22 73.29 99.94 73.42 98.66 73.59 97.39 73.81 96.11 74.13 94.83 74.55 93.55 75.06 92.27 75.63 90.99 76.22 89.71 76.81 88.43 77.35 87.15 77.83 85.87 78.25 84.59 78.62 83.31 78.94 82.03 79.22 80.75 79.46 79.47 79.65 78.19 79.8 76.91 79.92 75.63 80 74.35 80.07 73.07 80.14 71.79 80.22 70.51 80.29 69.23 80.35 67.95 80.41 66.67 80.45 65.39 80.49 64.11 80.53 62.83 80.57 61.55 80.62 60.27 80.67 58.99 80.72 57.71 80.75 56.43 80.77 55.15 80.79 53.87 80.81 52.59 80.84 51.31 80.88 50.03 80.93 48.75 80.97 47.47 81 46.19 81.03 44.91 81.04 43.63 81.05 42.35 81.06 41.07 81.08 39.79 81.09 38.51 81.1 37.23 81.12 35.95 81.14 34.67 81.16 33.39 81.17 32.11 81.18 30.83 81.19 29.55 81.19 28.27 81.2 28.27 81.21 29.55 81.22 30.83 81.23 32.11 81.24 33.39 81.26 34.67 81.28 35.95 81.29 37.23 81.31 38.51 81.32 39.79 81.33 41.07 81.34 42.35 81.35 43.63 81.37 44.91 81.4 46.19 81.43 47.47 81.47 48.75 81.51 50.03 81.55 51.31 81.58 52.59 81.61 53.87 81.63 55.15 81.65 56.43 81.68 57.71 81.72 58.99 81.77 60.27 81.83 61.55 81.87 62.83 81.91 64.11 81.95 65.39 81.99 66.67 82.04 67.95 82.11 69.23 82.18 70.51 82.25 71.79 82.32 73.07 82.4 74.35 82.48 75.63 82.59 76.91 82.74 78.19 82.94 79.47 83.18 80.75 83.46 82.03 83.78 83.31 84.14 84.59 84.57 85.87 85.05 87.15 85.59 88.43 86.17 89.71 86.77 90.99 87.34 92.27 87.85 93.55 88.26 94.83 88.58 96.11 88.81 97.39 88.98 98.66 89.11 99.94 89.25 101.22 89.41 102.5 89.59 103.78 89.76 105.06 89.88 106.34 89.93 107.62 89.86 108.9 89.69 110.18 89.42 111.46 89.05 112.74 88.63 114.02 88.17 115.3 87.72 116.58 87.28 117.86 86.85 119.14 86.43 120.42 85.99 121.7 85.54 122.98 85.09 124.26 84.65 125.54 84.24 126.82 83.88 128.1 83.56 129.38 83.28 130.66 83.04 131.94 82.83 133.22 82.65 134.5 82.5 135.78 82.35 137.06 82.21 138.34 82.06 139.62 81.9 140.9 81.74 142.18 81.6 143.46 81.48 144.74 81.39 146.02 81.33 147.3 81.28 148.58 81.25 149.86 81.23 151.14 81.21 152.42 81.21 153.7 81.2 154.98"/>
  </g>
  <g class="st48">
    <polygon class="st56" points="112.34 101.76 112.06 101.76 112.01 101.13 111.96 100.51 111.89 99.88 111.8 99.25 111.71 98.63 111.59 98 111.45 97.37 111.29 96.75 111.11 96.12 110.9 95.5 110.67 94.87 110.41 94.24 110.12 93.62 109.82 92.99 109.49 92.36 109.14 91.74 108.78 91.11 108.41 90.48 108.03 89.86 107.65 89.23 107.28 88.6 106.92 87.98 106.58 87.35 106.26 86.72 105.97 86.1 105.72 85.47 105.49 84.85 105.31 84.22 105.16 83.59 105.04 82.97 104.96 82.34 104.9 81.71 104.87 81.09 104.86 80.46 104.85 79.83 104.86 79.21 104.86 78.58 104.86 77.95 104.85 77.33 104.83 76.7 104.79 76.07 104.75 75.45 104.68 74.82 104.61 74.19 104.52 73.57 104.42 72.94 104.33 72.32 104.23 71.69 104.13 71.06 104.03 70.44 103.95 69.81 103.87 69.18 103.79 68.56 103.73 67.93 103.67 67.3 103.61 66.68 103.56 66.05 103.52 65.42 103.47 64.8 103.43 64.17 103.39 63.54 103.36 62.92 103.34 62.29 103.34 61.66 103.36 61.04 103.39 60.41 103.46 59.79 103.56 59.16 103.69 58.53 103.87 57.91 104.08 57.28 104.33 56.65 104.62 56.03 104.95 55.4 105.3 54.77 105.69 54.15 106.11 53.52 106.54 52.89 106.98 52.27 107.43 51.64 107.88 51.01 108.32 50.39 108.75 49.76 109.16 49.13 109.55 48.51 109.91 47.88 110.24 47.26 110.54 46.63 110.81 46 111.05 45.38 111.26 44.75 111.44 44.12 111.59 43.5 111.72 42.87 111.82 42.24 111.91 41.62 111.97 40.99 112.03 40.36 112.07 39.74 112.32 39.74 112.37 40.36 112.42 40.99 112.49 41.62 112.57 42.24 112.68 42.87 112.81 43.5 112.96 44.12 113.14 44.75 113.34 45.38 113.58 46 113.85 46.63 114.15 47.26 114.49 47.88 114.85 48.51 115.24 49.13 115.65 49.76 116.07 50.39 116.52 51.01 116.96 51.64 117.41 52.27 117.86 52.89 118.29 53.52 118.7 54.15 119.09 54.77 119.45 55.4 119.78 56.03 120.07 56.65 120.32 57.28 120.53 57.91 120.7 58.53 120.83 59.16 120.93 59.79 121 60.41 121.04 61.04 121.05 61.66 121.05 62.29 121.03 62.92 121 63.54 120.97 64.17 120.92 64.8 120.88 65.42 120.83 66.05 120.78 66.68 120.73 67.3 120.67 67.93 120.6 68.56 120.53 69.18 120.45 69.81 120.36 70.44 120.27 71.06 120.17 71.69 120.07 72.32 119.97 72.94 119.88 73.57 119.79 74.19 119.71 74.82 119.65 75.45 119.6 76.07 119.57 76.7 119.55 77.33 119.54 77.95 119.54 78.58 119.54 79.21 119.54 79.83 119.54 80.46 119.52 81.09 119.49 81.71 119.44 82.34 119.35 82.97 119.24 83.59 119.09 84.22 118.9 84.85 118.68 85.47 118.42 86.1 118.13 86.72 117.82 87.35 117.47 87.98 117.11 88.6 116.74 89.23 116.36 89.86 115.99 90.48 115.61 91.11 115.25 91.74 114.91 92.36 114.58 92.99 114.27 93.62 113.99 94.24 113.73 94.87 113.5 95.5 113.29 96.12 113.11 96.75 112.95 97.37 112.81 98 112.69 98.63 112.59 99.25 112.51 99.88 112.44 100.51 112.38 101.13 112.34 101.76"/>
    <polygon class="st6" points="112.34 101.76 112.06 101.76 112.01 101.13 111.96 100.51 111.89 99.88 111.8 99.25 111.71 98.63 111.59 98 111.45 97.37 111.29 96.75 111.11 96.12 110.9 95.5 110.67 94.87 110.41 94.24 110.12 93.62 109.82 92.99 109.49 92.36 109.14 91.74 108.78 91.11 108.41 90.48 108.03 89.86 107.65 89.23 107.28 88.6 106.92 87.98 106.58 87.35 106.26 86.72 105.97 86.1 105.72 85.47 105.49 84.85 105.31 84.22 105.16 83.59 105.04 82.97 104.96 82.34 104.9 81.71 104.87 81.09 104.86 80.46 104.85 79.83 104.86 79.21 104.86 78.58 104.86 77.95 104.85 77.33 104.83 76.7 104.79 76.07 104.75 75.45 104.68 74.82 104.61 74.19 104.52 73.57 104.42 72.94 104.33 72.32 104.23 71.69 104.13 71.06 104.03 70.44 103.95 69.81 103.87 69.18 103.79 68.56 103.73 67.93 103.67 67.3 103.61 66.68 103.56 66.05 103.52 65.42 103.47 64.8 103.43 64.17 103.39 63.54 103.36 62.92 103.34 62.29 103.34 61.66 103.36 61.04 103.39 60.41 103.46 59.79 103.56 59.16 103.69 58.53 103.87 57.91 104.08 57.28 104.33 56.65 104.62 56.03 104.95 55.4 105.3 54.77 105.69 54.15 106.11 53.52 106.54 52.89 106.98 52.27 107.43 51.64 107.88 51.01 108.32 50.39 108.75 49.76 109.16 49.13 109.55 48.51 109.91 47.88 110.24 47.26 110.54 46.63 110.81 46 111.05 45.38 111.26 44.75 111.44 44.12 111.59 43.5 111.72 42.87 111.82 42.24 111.91 41.62 111.97 40.99 112.03 40.36 112.07 39.74 112.32 39.74 112.37 40.36 112.42 40.99 112.49 41.62 112.57 42.24 112.68 42.87 112.81 43.5 112.96 44.12 113.14 44.75 113.34 45.38 113.58 46 113.85 46.63 114.15 47.26 114.49 47.88 114.85 48.51 115.24 49.13 115.65 49.76 116.07 50.39 116.52 51.01 116.96 51.64 117.41 52.27 117.86 52.89 118.29 53.52 118.7 54.15 119.09 54.77 119.45 55.4 119.78 56.03 120.07 56.65 120.32 57.28 120.53 57.91 120.7 58.53 120.83 59.16 120.93 59.79 121 60.41 121.04 61.04 121.05 61.66 121.05 62.29 121.03 62.92 121 63.54 120.97 64.17 120.92 64.8 120.88 65.42 120.83 66.05 120.78 66.68 120.73 67.3 120.67 67.93 120.6 68.56 120.53 69.18 120.45 69.81 120.36 70.44 120.27 71.06 120.17 71.69 120.07 72.32 119.97 72.94 119.88 73.57 119.79 74.19 119.71 74.82 119.65 75.45 119.6 76.07 119.57 76.7 119.55 77.33 119.54 77.95 119.54 78.58 119.54 79.21 119.54 79.83 119.54 80.46 119.52 81.09 119.49 81.71 119.44 82.34 119.35 82.97 119.24 83.59 119.09 84.22 118.9 84.85 118.68 85.47 118.42 86.1 118.13 86.72 117.82 87.35 117.47 87.98 117.11 88.6 116.74 89.23 116.36 89.86 115.99 90.48 115.61 91.11 115.25 91.74 114.91 92.36 114.58 92.99 114.27 93.62 113.99 94.24 113.73 94.87 113.5 95.5 113.29 96.12 113.11 96.75 112.95 97.37 112.81 98 112.69 98.63 112.59 99.25 112.51 99.88 112.44 100.51 112.38 101.13 112.34 101.76"/>
  </g>
  <g class="st49">
    <polygon class="st57" points="129.92 121.8 129.9 121.8 129.89 120.9 129.87 119.99 129.85 119.09 129.81 118.19 129.76 117.28 129.7 116.38 129.62 115.48 129.53 114.58 129.43 113.67 129.33 112.77 129.22 111.87 129.11 110.97 129 110.06 128.9 109.16 128.8 108.26 128.7 107.35 128.61 106.45 128.52 105.55 128.44 104.65 128.36 103.74 128.28 102.84 128.21 101.94 128.13 101.04 128.04 100.13 127.93 99.23 127.8 98.33 127.63 97.42 127.44 96.52 127.22 95.62 126.99 94.72 126.74 93.81 126.5 92.91 126.26 92.01 126.03 91.11 125.8 90.2 125.58 89.3 125.36 88.4 125.13 87.49 124.9 86.59 124.66 85.69 124.43 84.79 124.19 83.88 123.94 82.98 123.68 82.08 123.4 81.18 123.1 80.27 122.79 79.37 122.47 78.47 122.15 77.56 121.84 76.66 121.57 75.76 121.33 74.86 121.16 73.95 121.06 73.05 121.05 72.15 121.14 71.24 121.33 70.34 121.59 69.44 121.91 68.54 122.26 67.63 122.62 66.73 122.96 65.83 123.29 64.93 123.61 64.02 123.92 63.12 124.25 62.22 124.59 61.31 124.96 60.41 125.36 59.51 125.76 58.61 126.17 57.7 126.57 56.8 126.95 55.9 127.31 55 127.64 54.09 127.94 53.19 128.21 52.29 128.44 51.38 128.64 50.48 128.82 49.58 128.96 48.68 129.09 47.77 129.2 46.87 129.3 45.97 129.4 45.07 129.49 44.16 129.57 43.26 129.64 42.36 129.7 41.45 129.76 40.55 129.8 39.65 129.83 38.75 129.85 37.84 129.87 36.94 129.88 36.04 129.89 35.14 129.9 34.23 129.9 33.33 129.91 32.43 129.92 32.43 129.92 33.33 129.92 34.23 129.93 35.14 129.94 36.04 129.95 36.94 129.97 37.84 130 38.75 130.03 39.65 130.07 40.55 130.12 41.45 130.18 42.36 130.25 43.26 130.34 44.16 130.43 45.07 130.52 45.97 130.62 46.87 130.74 47.77 130.86 48.68 131.01 49.58 131.18 50.48 131.38 51.38 131.62 52.29 131.88 53.19 132.18 54.09 132.51 55 132.87 55.9 133.25 56.8 133.65 57.7 134.06 58.61 134.47 59.51 134.86 60.41 135.23 61.31 135.57 62.22 135.9 63.12 136.22 64.02 136.53 64.93 136.86 65.83 137.21 66.73 137.56 67.63 137.91 68.54 138.23 69.44 138.49 70.34 138.68 71.24 138.77 72.15 138.76 73.05 138.66 73.95 138.49 74.86 138.26 75.76 137.98 76.66 137.68 77.56 137.36 78.47 137.03 79.37 136.72 80.27 136.42 81.18 136.14 82.08 135.88 82.98 135.63 83.88 135.39 84.79 135.16 85.69 134.92 86.59 134.69 87.49 134.46 88.4 134.24 89.3 134.02 90.2 133.79 91.11 133.56 92.01 133.32 92.91 133.08 93.81 132.83 94.72 132.6 95.62 132.38 96.52 132.19 97.42 132.02 98.33 131.89 99.23 131.78 100.13 131.69 101.04 131.61 101.94 131.54 102.84 131.46 103.74 131.39 104.65 131.3 105.55 131.21 106.45 131.12 107.35 131.03 108.26 130.93 109.16 130.82 110.06 130.72 110.97 130.61 111.87 130.5 112.77 130.39 113.67 130.29 114.58 130.2 115.48 130.12 116.38 130.06 117.28 130.01 118.19 129.97 119.09 129.95 119.99 129.93 120.9 129.92 121.8"/>
    <polygon class="st6" points="129.92 121.8 129.9 121.8 129.89 120.9 129.87 119.99 129.85 119.09 129.81 118.19 129.76 117.28 129.7 116.38 129.62 115.48 129.53 114.58 129.43 113.67 129.33 112.77 129.22 111.87 129.11 110.97 129 110.06 128.9 109.16 128.8 108.26 128.7 107.35 128.61 106.45 128.52 105.55 128.44 104.65 128.36 103.74 128.28 102.84 128.21 101.94 128.13 101.04 128.04 100.13 127.93 99.23 127.8 98.33 127.63 97.42 127.44 96.52 127.22 95.62 126.99 94.72 126.74 93.81 126.5 92.91 126.26 92.01 126.03 91.11 125.8 90.2 125.58 89.3 125.36 88.4 125.13 87.49 124.9 86.59 124.66 85.69 124.43 84.79 124.19 83.88 123.94 82.98 123.68 82.08 123.4 81.18 123.1 80.27 122.79 79.37 122.47 78.47 122.15 77.56 121.84 76.66 121.57 75.76 121.33 74.86 121.16 73.95 121.06 73.05 121.05 72.15 121.14 71.24 121.33 70.34 121.59 69.44 121.91 68.54 122.26 67.63 122.62 66.73 122.96 65.83 123.29 64.93 123.61 64.02 123.92 63.12 124.25 62.22 124.59 61.31 124.96 60.41 125.36 59.51 125.76 58.61 126.17 57.7 126.57 56.8 126.95 55.9 127.31 55 127.64 54.09 127.94 53.19 128.21 52.29 128.44 51.38 128.64 50.48 128.82 49.58 128.96 48.68 129.09 47.77 129.2 46.87 129.3 45.97 129.4 45.07 129.49 44.16 129.57 43.26 129.64 42.36 129.7 41.45 129.76 40.55 129.8 39.65 129.83 38.75 129.85 37.84 129.87 36.94 129.88 36.04 129.89 35.14 129.9 34.23 129.9 33.33 129.91 32.43 129.92 32.43 129.92 33.33 129.92 34.23 129.93 35.14 129.94 36.04 129.95 36.94 129.97 37.84 130 38.75 130.03 39.65 130.07 40.55 130.12 41.45 130.18 42.36 130.25 43.26 130.34 44.16 130.43 45.07 130.52 45.97 130.62 46.87 130.74 47.77 130.86 48.68 131.01 49.58 131.18 50.48 131.38 51.38 131.62 52.29 131.88 53.19 132.18 54.09 132.51 55 132.87 55.9 133.25 56.8 133.65 57.7 134.06 58.61 134.47 59.51 134.86 60.41 135.23 61.31 135.57 62.22 135.9 63.12 136.22 64.02 136.53 64.93 136.86 65.83 137.21 66.73 137.56 67.63 137.91 68.54 138.23 69.44 138.49 70.34 138.68 71.24 138.77 72.15 138.76 73.05 138.66 73.95 138.49 74.86 138.26 75.76 137.98 76.66 137.68 77.56 137.36 78.47 137.03 79.37 136.72 80.27 136.42 81.18 136.14 82.08 135.88 82.98 135.63 83.88 135.39 84.79 135.16 85.69 134.92 86.59 134.69 87.49 134.46 88.4 134.24 89.3 134.02 90.2 133.79 91.11 133.56 92.01 133.32 92.91 133.08 93.81 132.83 94.72 132.6 95.62 132.38 96.52 132.19 97.42 132.02 98.33 131.89 99.23 131.78 100.13 131.69 101.04 131.61 101.94 131.54 102.84 131.46 103.74 131.39 104.65 131.3 105.55 131.21 106.45 131.12 107.35 131.03 108.26 130.93 109.16 130.82 110.06 130.72 110.97 130.61 111.87 130.5 112.77 130.39 113.67 130.29 114.58 130.2 115.48 130.12 116.38 130.06 117.28 130.01 118.19 129.97 119.09 129.95 119.99 129.93 120.9 129.92 121.8"/>
  </g>
  <g class="st55">
    <polygon class="st58" points="147.63 130.49 147.62 130.49 147.61 129.48 147.6 128.47 147.6 127.46 147.58 126.45 147.57 125.44 147.55 124.42 147.53 123.41 147.5 122.4 147.47 121.39 147.43 120.38 147.37 119.36 147.3 118.35 147.22 117.34 147.13 116.33 147.02 115.32 146.89 114.3 146.76 113.29 146.61 112.28 146.45 111.27 146.28 110.26 146.08 109.24 145.87 108.23 145.64 107.22 145.4 106.21 145.15 105.2 144.89 104.18 144.63 103.17 144.37 102.16 144.13 101.15 143.9 100.14 143.69 99.13 143.49 98.11 143.29 97.1 143.1 96.09 142.91 95.08 142.7 94.07 142.49 93.05 142.28 92.04 142.05 91.03 141.83 90.02 141.61 89.01 141.39 87.99 141.17 86.98 140.96 85.97 140.75 84.96 140.55 83.95 140.37 82.93 140.19 81.92 140.04 80.91 139.91 79.9 139.79 78.89 139.69 77.87 139.61 76.86 139.54 75.85 139.49 74.84 139.45 73.83 139.42 72.82 139.41 71.8 139.43 70.79 139.49 69.78 139.6 68.77 139.77 67.76 140.01 66.74 140.32 65.73 140.7 64.72 141.13 63.71 141.61 62.7 142.13 61.68 142.66 60.67 143.18 59.66 143.68 58.65 144.15 57.64 144.56 56.62 144.93 55.61 145.24 54.6 145.5 53.59 145.72 52.58 145.9 51.57 146.05 50.55 146.18 49.54 146.3 48.53 146.41 47.52 146.51 46.51 146.59 45.49 146.67 44.48 146.74 43.47 146.81 42.46 146.88 41.45 146.95 40.43 147.03 39.42 147.11 38.41 147.19 37.4 147.28 36.39 147.35 35.37 147.42 34.36 147.48 33.35 147.53 32.34 147.56 31.33 147.59 30.31 147.66 30.31 147.69 31.33 147.72 32.34 147.77 33.35 147.83 34.36 147.9 35.37 147.97 36.39 148.06 37.4 148.14 38.41 148.22 39.42 148.3 40.43 148.37 41.45 148.44 42.46 148.51 43.47 148.58 44.48 148.66 45.49 148.74 46.51 148.84 47.52 148.95 48.53 149.07 49.54 149.2 50.55 149.35 51.57 149.53 52.58 149.75 53.59 150.01 54.6 150.32 55.61 150.68 56.62 151.1 57.64 151.57 58.65 152.07 59.66 152.59 60.67 153.12 61.68 153.63 62.7 154.12 63.71 154.55 64.72 154.93 65.73 155.24 66.74 155.48 67.76 155.65 68.77 155.76 69.78 155.82 70.79 155.84 71.8 155.83 72.82 155.8 73.83 155.76 74.84 155.71 75.85 155.64 76.86 155.56 77.87 155.46 78.89 155.34 79.9 155.21 80.91 155.05 81.92 154.88 82.93 154.7 83.95 154.5 84.96 154.29 85.97 154.08 86.98 153.86 87.99 153.64 89.01 153.42 90.02 153.19 91.03 152.97 92.04 152.76 93.05 152.54 94.07 152.34 95.08 152.15 96.09 151.95 97.1 151.76 98.11 151.56 99.13 151.35 100.14 151.12 101.15 150.88 102.16 150.62 103.17 150.36 104.18 150.1 105.2 149.85 106.21 149.6 107.22 149.38 108.23 149.17 109.24 148.97 110.26 148.8 111.27 148.64 112.28 148.49 113.29 148.35 114.3 148.23 115.32 148.12 116.33 148.03 117.34 147.95 118.35 147.88 119.36 147.82 120.38 147.78 121.39 147.75 122.4 147.72 123.41 147.7 124.42 147.68 125.44 147.67 126.45 147.65 127.46 147.64 128.47 147.64 129.48 147.63 130.49"/>
    <polygon class="st6" points="147.63 130.49 147.62 130.49 147.61 129.48 147.6 128.47 147.6 127.46 147.58 126.45 147.57 125.44 147.55 124.42 147.53 123.41 147.5 122.4 147.47 121.39 147.43 120.38 147.37 119.36 147.3 118.35 147.22 117.34 147.13 116.33 147.02 115.32 146.89 114.3 146.76 113.29 146.61 112.28 146.45 111.27 146.28 110.26 146.08 109.24 145.87 108.23 145.64 107.22 145.4 106.21 145.15 105.2 144.89 104.18 144.63 103.17 144.37 102.16 144.13 101.15 143.9 100.14 143.69 99.13 143.49 98.11 143.29 97.1 143.1 96.09 142.91 95.08 142.7 94.07 142.49 93.05 142.28 92.04 142.05 91.03 141.83 90.02 141.61 89.01 141.39 87.99 141.17 86.98 140.96 85.97 140.75 84.96 140.55 83.95 140.37 82.93 140.19 81.92 140.04 80.91 139.91 79.9 139.79 78.89 139.69 77.87 139.61 76.86 139.54 75.85 139.49 74.84 139.45 73.83 139.42 72.82 139.41 71.8 139.43 70.79 139.49 69.78 139.6 68.77 139.77 67.76 140.01 66.74 140.32 65.73 140.7 64.72 141.13 63.71 141.61 62.7 142.13 61.68 142.66 60.67 143.18 59.66 143.68 58.65 144.15 57.64 144.56 56.62 144.93 55.61 145.24 54.6 145.5 53.59 145.72 52.58 145.9 51.57 146.05 50.55 146.18 49.54 146.3 48.53 146.41 47.52 146.51 46.51 146.59 45.49 146.67 44.48 146.74 43.47 146.81 42.46 146.88 41.45 146.95 40.43 147.03 39.42 147.11 38.41 147.19 37.4 147.28 36.39 147.35 35.37 147.42 34.36 147.48 33.35 147.53 32.34 147.56 31.33 147.59 30.31 147.66 30.31 147.69 31.33 147.72 32.34 147.77 33.35 147.83 34.36 147.9 35.37 147.97 36.39 148.06 37.4 148.14 38.41 148.22 39.42 148.3 40.43 148.37 41.45 148.44 42.46 148.51 43.47 148.58 44.48 148.66 45.49 148.74 46.51 148.84 47.52 148.95 48.53 149.07 49.54 149.2 50.55 149.35 51.57 149.53 52.58 149.75 53.59 150.01 54.6 150.32 55.61 150.68 56.62 151.1 57.64 151.57 58.65 152.07 59.66 152.59 60.67 153.12 61.68 153.63 62.7 154.12 63.71 154.55 64.72 154.93 65.73 155.24 66.74 155.48 67.76 155.65 68.77 155.76 69.78 155.82 70.79 155.84 71.8 155.83 72.82 155.8 73.83 155.76 74.84 155.71 75.85 155.64 76.86 155.56 77.87 155.46 78.89 155.34 79.9 155.21 80.91 155.05 81.92 154.88 82.93 154.7 83.95 154.5 84.96 154.29 85.97 154.08 86.98 153.86 87.99 153.64 89.01 153.42 90.02 153.19 91.03 152.97 92.04 152.76 93.05 152.54 94.07 152.34 95.08 152.15 96.09 151.95 97.1 151.76 98.11 151.56 99.13 151.35 100.14 151.12 101.15 150.88 102.16 150.62 103.17 150.36 104.18 150.1 105.2 149.85 106.21 149.6 107.22 149.38 108.23 149.17 109.24 148.97 110.26 148.8 111.27 148.64 112.28 148.49 113.29 148.35 114.3 148.23 115.32 148.12 116.33 148.03 117.34 147.95 118.35 147.88 119.36 147.82 120.38 147.78 121.39 147.75 122.4 147.72 123.41 147.7 124.42 147.68 125.44 147.67 126.45 147.65 127.46 147.64 128.47 147.64 129.48 147.63 130.49"/>
  </g>
  <g class="st52">
    <polygon class="st56" points="178.63 141.2 178.62 141.2 178.61 139.97 178.6 138.74 178.6 137.51 178.59 136.28 178.58 135.06 178.57 133.83 178.56 132.6 178.56 131.37 178.55 130.15 178.54 128.92 178.51 127.69 178.48 126.46 178.43 125.24 178.37 124.01 178.3 122.78 178.21 121.55 178.12 120.33 178.01 119.1 177.9 117.87 177.78 116.64 177.64 115.42 177.49 114.19 177.32 112.96 177.13 111.73 176.91 110.5 176.67 109.28 176.42 108.05 176.16 106.82 175.9 105.59 175.64 104.37 175.4 103.14 175.17 101.91 174.95 100.68 174.73 99.46 174.5 98.23 174.24 97 173.94 95.77 173.58 94.55 173.17 93.32 172.7 92.09 172.19 90.86 171.69 89.64 171.21 88.41 170.8 87.18 170.48 85.95 170.24 84.72 170.07 83.5 169.95 82.27 169.87 81.04 169.84 79.81 169.87 78.59 169.99 77.36 170.22 76.13 170.54 74.9 170.93 73.68 171.36 72.45 171.8 71.22 172.24 69.99 172.67 68.77 173.09 67.54 173.53 66.31 173.98 65.08 174.43 63.86 174.87 62.63 175.3 61.4 175.7 60.17 176.06 58.94 176.37 57.72 176.64 56.49 176.86 55.26 177.05 54.03 177.22 52.81 177.37 51.58 177.51 50.35 177.64 49.12 177.76 47.9 177.88 46.67 178 45.44 178.11 44.21 178.21 42.99 178.31 41.76 178.39 40.53 178.45 39.3 178.5 38.08 178.54 36.85 178.57 35.62 178.58 34.39 178.58 33.16 178.58 31.94 178.58 30.71 178.57 29.48 178.57 28.25 178.57 27.03 178.58 25.8 178.59 24.57 178.6 23.34 178.6 22.12 178.61 20.89 178.62 19.66 178.63 19.66 178.64 20.89 178.64 22.12 178.65 23.34 178.66 24.57 178.67 25.8 178.67 27.03 178.68 28.25 178.67 29.48 178.67 30.71 178.67 31.94 178.66 33.16 178.67 34.39 178.68 35.62 178.71 36.85 178.74 38.08 178.8 39.3 178.86 40.53 178.94 41.76 179.03 42.99 179.14 44.21 179.25 45.44 179.36 46.67 179.48 47.9 179.61 49.12 179.74 50.35 179.88 51.58 180.03 52.81 180.19 54.03 180.39 55.26 180.61 56.49 180.88 57.72 181.19 58.94 181.54 60.17 181.94 61.4 182.37 62.63 182.82 63.86 183.27 65.08 183.72 66.31 184.15 67.54 184.58 68.77 185.01 69.99 185.45 71.22 185.89 72.45 186.32 73.68 186.71 74.9 187.03 76.13 187.25 77.36 187.38 78.59 187.41 79.81 187.37 81.04 187.29 82.27 187.18 83.5 187.01 84.72 186.77 85.95 186.45 87.18 186.04 88.41 185.56 89.64 185.05 90.86 184.55 92.09 184.08 93.32 183.67 94.55 183.31 95.77 183.01 97 182.75 98.23 182.52 99.46 182.3 100.68 182.08 101.91 181.85 103.14 181.6 104.37 181.35 105.59 181.09 106.82 180.83 108.05 180.57 109.28 180.34 110.5 180.12 111.73 179.92 112.96 179.75 114.19 179.6 115.42 179.47 116.64 179.35 117.87 179.23 119.1 179.13 120.33 179.04 121.55 178.95 122.78 178.88 124.01 178.82 125.24 178.77 126.46 178.73 127.69 178.71 128.92 178.7 130.15 178.69 131.37 178.68 132.6 178.68 133.83 178.67 135.06 178.66 136.28 178.65 137.51 178.64 138.74 178.64 139.97 178.63 141.2"/>
    <polygon class="st6" points="178.63 141.2 178.62 141.2 178.61 139.97 178.6 138.74 178.6 137.51 178.59 136.28 178.58 135.06 178.57 133.83 178.56 132.6 178.56 131.37 178.55 130.15 178.54 128.92 178.51 127.69 178.48 126.46 178.43 125.24 178.37 124.01 178.3 122.78 178.21 121.55 178.12 120.33 178.01 119.1 177.9 117.87 177.78 116.64 177.64 115.42 177.49 114.19 177.32 112.96 177.13 111.73 176.91 110.5 176.67 109.28 176.42 108.05 176.16 106.82 175.9 105.59 175.64 104.37 175.4 103.14 175.17 101.91 174.95 100.68 174.73 99.46 174.5 98.23 174.24 97 173.94 95.77 173.58 94.55 173.17 93.32 172.7 92.09 172.19 90.86 171.69 89.64 171.21 88.41 170.8 87.18 170.48 85.95 170.24 84.72 170.07 83.5 169.95 82.27 169.87 81.04 169.84 79.81 169.87 78.59 169.99 77.36 170.22 76.13 170.54 74.9 170.93 73.68 171.36 72.45 171.8 71.22 172.24 69.99 172.67 68.77 173.09 67.54 173.53 66.31 173.98 65.08 174.43 63.86 174.87 62.63 175.3 61.4 175.7 60.17 176.06 58.94 176.37 57.72 176.64 56.49 176.86 55.26 177.05 54.03 177.22 52.81 177.37 51.58 177.51 50.35 177.64 49.12 177.76 47.9 177.88 46.67 178 45.44 178.11 44.21 178.21 42.99 178.31 41.76 178.39 40.53 178.45 39.3 178.5 38.08 178.54 36.85 178.57 35.62 178.58 34.39 178.58 33.16 178.58 31.94 178.58 30.71 178.57 29.48 178.57 28.25 178.57 27.03 178.58 25.8 178.59 24.57 178.6 23.34 178.6 22.12 178.61 20.89 178.62 19.66 178.63 19.66 178.64 20.89 178.64 22.12 178.65 23.34 178.66 24.57 178.67 25.8 178.67 27.03 178.68 28.25 178.67 29.48 178.67 30.71 178.67 31.94 178.66 33.16 178.67 34.39 178.68 35.62 178.71 36.85 178.74 38.08 178.8 39.3 178.86 40.53 178.94 41.76 179.03 42.99 179.14 44.21 179.25 45.44 179.36 46.67 179.48 47.9 179.61 49.12 179.74 50.35 179.88 51.58 180.03 52.81 180.19 54.03 180.39 55.26 180.61 56.49 180.88 57.72 181.19 58.94 181.54 60.17 181.94 61.4 182.37 62.63 182.82 63.86 183.27 65.08 183.72 66.31 184.15 67.54 184.58 68.77 185.01 69.99 185.45 71.22 185.89 72.45 186.32 73.68 186.71 74.9 187.03 76.13 187.25 77.36 187.38 78.59 187.41 79.81 187.37 81.04 187.29 82.27 187.18 83.5 187.01 84.72 186.77 85.95 186.45 87.18 186.04 88.41 185.56 89.64 185.05 90.86 184.55 92.09 184.08 93.32 183.67 94.55 183.31 95.77 183.01 97 182.75 98.23 182.52 99.46 182.3 100.68 182.08 101.91 181.85 103.14 181.6 104.37 181.35 105.59 181.09 106.82 180.83 108.05 180.57 109.28 180.34 110.5 180.12 111.73 179.92 112.96 179.75 114.19 179.6 115.42 179.47 116.64 179.35 117.87 179.23 119.1 179.13 120.33 179.04 121.55 178.95 122.78 178.88 124.01 178.82 125.24 178.77 126.46 178.73 127.69 178.71 128.92 178.7 130.15 178.69 131.37 178.68 132.6 178.68 133.83 178.67 135.06 178.66 136.28 178.65 137.51 178.64 138.74 178.64 139.97 178.63 141.2"/>
  </g>
  <g class="st51">
    <polygon class="st57" points="196.34 141.48 196.33 141.48 196.33 140.21 196.32 138.94 196.31 137.66 196.3 136.39 196.28 135.11 196.27 133.84 196.26 132.56 196.26 131.29 196.25 130.01 196.25 128.74 196.25 127.46 196.25 126.19 196.25 124.91 196.24 123.64 196.23 122.36 196.21 121.09 196.19 119.81 196.15 118.54 196.1 117.27 196.04 115.99 195.96 114.72 195.88 113.44 195.77 112.17 195.64 110.89 195.48 109.62 195.28 108.34 195.05 107.07 194.78 105.79 194.48 104.52 194.16 103.24 193.83 101.97 193.49 100.69 193.14 99.42 192.77 98.15 192.37 96.87 191.95 95.6 191.54 94.32 191.16 93.05 190.83 91.77 190.54 90.5 190.3 89.22 190.08 87.95 189.85 86.67 189.61 85.4 189.34 84.12 189.05 82.85 188.77 81.57 188.52 80.3 188.33 79.03 188.23 77.75 188.23 76.48 188.35 75.2 188.57 73.93 188.89 72.65 189.31 71.38 189.79 70.1 190.29 68.83 190.79 67.55 191.24 66.28 191.66 65 192.06 63.73 192.46 62.45 192.89 61.18 193.34 59.9 193.8 58.63 194.24 57.36 194.64 56.08 194.98 54.81 195.25 53.53 195.46 52.26 195.62 50.98 195.74 49.71 195.83 48.43 195.9 47.16 195.94 45.88 195.97 44.61 195.98 43.33 195.98 42.06 195.98 40.78 195.99 39.51 196.01 38.24 196.05 36.96 196.1 35.69 196.15 34.41 196.2 33.14 196.24 31.86 196.26 30.59 196.27 29.31 196.27 28.04 196.26 26.76 196.25 25.49 196.25 24.21 196.26 22.94 196.27 21.66 196.28 20.39 196.3 19.12 196.31 17.84 196.32 16.57 196.33 15.29 196.35 15.29 196.35 16.57 196.36 17.84 196.38 19.12 196.39 20.39 196.41 21.66 196.42 22.94 196.42 24.21 196.42 25.49 196.41 26.76 196.41 28.04 196.4 29.31 196.41 30.59 196.44 31.86 196.47 33.14 196.52 34.41 196.57 35.69 196.62 36.96 196.66 38.24 196.68 39.51 196.69 40.78 196.69 42.06 196.7 43.33 196.71 44.61 196.73 45.88 196.78 47.16 196.84 48.43 196.93 49.71 197.05 50.98 197.21 52.26 197.42 53.53 197.69 54.81 198.03 56.08 198.43 57.36 198.88 58.63 199.34 59.9 199.79 61.18 200.21 62.45 200.62 63.73 201.01 65 201.43 66.28 201.89 67.55 202.38 68.83 202.89 70.1 203.37 71.38 203.78 72.65 204.11 73.93 204.33 75.2 204.44 76.48 204.45 77.75 204.35 79.03 204.16 80.3 203.9 81.57 203.62 82.85 203.33 84.12 203.07 85.4 202.82 86.67 202.59 87.95 202.37 89.22 202.13 90.5 201.85 91.77 201.52 93.05 201.13 94.32 200.72 95.6 200.31 96.87 199.91 98.15 199.53 99.42 199.18 100.69 198.85 101.97 198.52 103.24 198.2 104.52 197.9 105.79 197.62 107.07 197.39 108.34 197.2 109.62 197.04 110.89 196.91 112.17 196.8 113.44 196.71 114.72 196.64 115.99 196.58 117.27 196.53 118.54 196.49 119.81 196.46 121.09 196.44 122.36 196.43 123.64 196.43 124.91 196.43 126.19 196.43 127.46 196.42 128.74 196.42 130.01 196.42 131.29 196.41 132.56 196.4 133.84 196.39 135.11 196.38 136.39 196.37 137.66 196.36 138.94 196.35 140.21 196.34 141.48"/>
    <polygon class="st6" points="196.34 141.48 196.33 141.48 196.33 140.21 196.32 138.94 196.31 137.66 196.3 136.39 196.28 135.11 196.27 133.84 196.26 132.56 196.26 131.29 196.25 130.01 196.25 128.74 196.25 127.46 196.25 126.19 196.25 124.91 196.24 123.64 196.23 122.36 196.21 121.09 196.19 119.81 196.15 118.54 196.1 117.27 196.04 115.99 195.96 114.72 195.88 113.44 195.77 112.17 195.64 110.89 195.48 109.62 195.28 108.34 195.05 107.07 194.78 105.79 194.48 104.52 194.16 103.24 193.83 101.97 193.49 100.69 193.14 99.42 192.77 98.15 192.37 96.87 191.95 95.6 191.54 94.32 191.16 93.05 190.83 91.77 190.54 90.5 190.3 89.22 190.08 87.95 189.85 86.67 189.61 85.4 189.34 84.12 189.05 82.85 188.77 81.57 188.52 80.3 188.33 79.03 188.23 77.75 188.23 76.48 188.35 75.2 188.57 73.93 188.89 72.65 189.31 71.38 189.79 70.1 190.29 68.83 190.79 67.55 191.24 66.28 191.66 65 192.06 63.73 192.46 62.45 192.89 61.18 193.34 59.9 193.8 58.63 194.24 57.36 194.64 56.08 194.98 54.81 195.25 53.53 195.46 52.26 195.62 50.98 195.74 49.71 195.83 48.43 195.9 47.16 195.94 45.88 195.97 44.61 195.98 43.33 195.98 42.06 195.98 40.78 195.99 39.51 196.01 38.24 196.05 36.96 196.1 35.69 196.15 34.41 196.2 33.14 196.24 31.86 196.26 30.59 196.27 29.31 196.27 28.04 196.26 26.76 196.25 25.49 196.25 24.21 196.26 22.94 196.27 21.66 196.28 20.39 196.3 19.12 196.31 17.84 196.32 16.57 196.33 15.29 196.35 15.29 196.35 16.57 196.36 17.84 196.38 19.12 196.39 20.39 196.41 21.66 196.42 22.94 196.42 24.21 196.42 25.49 196.41 26.76 196.41 28.04 196.4 29.31 196.41 30.59 196.44 31.86 196.47 33.14 196.52 34.41 196.57 35.69 196.62 36.96 196.66 38.24 196.68 39.51 196.69 40.78 196.69 42.06 196.7 43.33 196.71 44.61 196.73 45.88 196.78 47.16 196.84 48.43 196.93 49.71 197.05 50.98 197.21 52.26 197.42 53.53 197.69 54.81 198.03 56.08 198.43 57.36 198.88 58.63 199.34 59.9 199.79 61.18 200.21 62.45 200.62 63.73 201.01 65 201.43 66.28 201.89 67.55 202.38 68.83 202.89 70.1 203.37 71.38 203.78 72.65 204.11 73.93 204.33 75.2 204.44 76.48 204.45 77.75 204.35 79.03 204.16 80.3 203.9 81.57 203.62 82.85 203.33 84.12 203.07 85.4 202.82 86.67 202.59 87.95 202.37 89.22 202.13 90.5 201.85 91.77 201.52 93.05 201.13 94.32 200.72 95.6 200.31 96.87 199.91 98.15 199.53 99.42 199.18 100.69 198.85 101.97 198.52 103.24 198.2 104.52 197.9 105.79 197.62 107.07 197.39 108.34 197.2 109.62 197.04 110.89 196.91 112.17 196.8 113.44 196.71 114.72 196.64 115.99 196.58 117.27 196.53 118.54 196.49 119.81 196.46 121.09 196.44 122.36 196.43 123.64 196.43 124.91 196.43 126.19 196.43 127.46 196.42 128.74 196.42 130.01 196.42 131.29 196.41 132.56 196.4 133.84 196.39 135.11 196.38 136.39 196.37 137.66 196.36 138.94 196.35 140.21 196.34 141.48"/>
  </g>
  <g class="st54">
    <polygon class="st58" points="214.06 139.92 214.05 139.92 214.04 138.69 214.03 137.47 214.02 136.24 214 135.01 213.97 133.79 213.94 132.56 213.9 131.33 213.85 130.11 213.79 128.88 213.72 127.65 213.66 126.43 213.6 125.2 213.54 123.98 213.47 122.75 213.4 121.52 213.32 120.3 213.21 119.07 213.06 117.84 212.85 116.62 212.57 115.39 212.24 114.16 211.87 112.94 211.5 111.71 211.14 110.48 210.82 109.26 210.54 108.03 210.28 106.81 210.03 105.58 209.75 104.35 209.39 103.13 208.95 101.9 208.44 100.67 207.89 99.45 207.36 98.22 206.87 96.99 206.44 95.77 206.07 94.54 205.75 93.31 205.5 92.09 205.31 90.86 205.21 89.64 205.19 88.41 205.25 87.18 205.37 85.96 205.54 84.73 205.76 83.5 206.01 82.28 206.27 81.05 206.53 79.82 206.78 78.6 207.03 77.37 207.28 76.14 207.53 74.92 207.79 73.69 208.07 72.47 208.38 71.24 208.71 70.01 209.07 68.79 209.48 67.56 209.92 66.33 210.4 65.11 210.89 63.88 211.36 62.65 211.8 61.43 212.18 60.2 212.49 58.97 212.76 57.75 212.98 56.52 213.18 55.3 213.36 54.07 213.52 52.84 213.65 51.62 213.75 50.39 213.84 49.16 213.91 47.94 213.95 46.71 213.98 45.48 214 44.26 214.01 43.03 214.02 41.8 214.03 40.58 214.03 39.35 214.04 38.13 214.04 36.9 214.04 35.67 214.03 34.45 214.02 33.22 214.01 31.99 214 30.77 213.99 29.54 213.99 28.31 213.98 27.09 213.99 25.86 213.99 24.64 214.01 23.41 214.02 22.18 214.03 20.96 214.04 19.73 214.05 18.5 214.06 18.5 214.06 19.73 214.07 20.96 214.08 22.18 214.1 23.41 214.11 24.64 214.12 25.86 214.12 27.09 214.11 28.31 214.11 29.54 214.1 30.77 214.09 31.99 214.08 33.22 214.07 34.45 214.07 35.67 214.06 36.9 214.07 38.13 214.07 39.35 214.08 40.58 214.08 41.8 214.09 43.03 214.1 44.26 214.12 45.48 214.15 46.71 214.2 47.94 214.26 49.16 214.35 50.39 214.46 51.62 214.59 52.84 214.74 54.07 214.92 55.3 215.12 56.52 215.35 57.75 215.61 58.97 215.92 60.2 216.3 61.43 216.74 62.65 217.22 63.88 217.71 65.11 218.18 66.33 218.63 67.56 219.03 68.79 219.39 70.01 219.73 71.24 220.03 72.47 220.31 73.69 220.57 74.92 220.82 76.14 221.07 77.37 221.32 78.6 221.57 79.82 221.83 81.05 222.09 82.28 222.34 83.5 222.56 84.73 222.74 85.96 222.85 87.18 222.91 88.41 222.89 89.64 222.79 90.86 222.61 92.09 222.35 93.31 222.03 94.54 221.66 95.77 221.23 96.99 220.74 98.22 220.21 99.45 219.67 100.67 219.15 101.9 218.71 103.13 218.35 104.35 218.07 105.58 217.82 106.81 217.56 108.03 217.28 109.26 216.96 110.48 216.6 111.71 216.23 112.94 215.86 114.16 215.53 115.39 215.25 116.62 215.04 117.84 214.89 119.07 214.78 120.3 214.7 121.52 214.63 122.75 214.57 123.98 214.51 125.2 214.44 126.43 214.38 127.65 214.31 128.88 214.25 130.11 214.2 131.33 214.16 132.56 214.13 133.79 214.1 135.01 214.08 136.24 214.07 137.47 214.06 138.69 214.06 139.92"/>
    <polygon class="st6" points="214.06 139.92 214.05 139.92 214.04 138.69 214.03 137.47 214.02 136.24 214 135.01 213.97 133.79 213.94 132.56 213.9 131.33 213.85 130.11 213.79 128.88 213.72 127.65 213.66 126.43 213.6 125.2 213.54 123.98 213.47 122.75 213.4 121.52 213.32 120.3 213.21 119.07 213.06 117.84 212.85 116.62 212.57 115.39 212.24 114.16 211.87 112.94 211.5 111.71 211.14 110.48 210.82 109.26 210.54 108.03 210.28 106.81 210.03 105.58 209.75 104.35 209.39 103.13 208.95 101.9 208.44 100.67 207.89 99.45 207.36 98.22 206.87 96.99 206.44 95.77 206.07 94.54 205.75 93.31 205.5 92.09 205.31 90.86 205.21 89.64 205.19 88.41 205.25 87.18 205.37 85.96 205.54 84.73 205.76 83.5 206.01 82.28 206.27 81.05 206.53 79.82 206.78 78.6 207.03 77.37 207.28 76.14 207.53 74.92 207.79 73.69 208.07 72.47 208.38 71.24 208.71 70.01 209.07 68.79 209.48 67.56 209.92 66.33 210.4 65.11 210.89 63.88 211.36 62.65 211.8 61.43 212.18 60.2 212.49 58.97 212.76 57.75 212.98 56.52 213.18 55.3 213.36 54.07 213.52 52.84 213.65 51.62 213.75 50.39 213.84 49.16 213.91 47.94 213.95 46.71 213.98 45.48 214 44.26 214.01 43.03 214.02 41.8 214.03 40.58 214.03 39.35 214.04 38.13 214.04 36.9 214.04 35.67 214.03 34.45 214.02 33.22 214.01 31.99 214 30.77 213.99 29.54 213.99 28.31 213.98 27.09 213.99 25.86 213.99 24.64 214.01 23.41 214.02 22.18 214.03 20.96 214.04 19.73 214.05 18.5 214.06 18.5 214.06 19.73 214.07 20.96 214.08 22.18 214.1 23.41 214.11 24.64 214.12 25.86 214.12 27.09 214.11 28.31 214.11 29.54 214.1 30.77 214.09 31.99 214.08 33.22 214.07 34.45 214.07 35.67 214.06 36.9 214.07 38.13 214.07 39.35 214.08 40.58 214.08 41.8 214.09 43.03 214.1 44.26 214.12 45.48 214.15 46.71 214.2 47.94 214.26 49.16 214.35 50.39 214.46 51.62 214.59 52.84 214.74 54.07 214.92 55.3 215.12 56.52 215.35 57.75 215.61 58.97 215.92 60.2 216.3 61.43 216.74 62.65 217.22 63.88 217.71 65.11 218.18 66.33 218.63 67.56 219.03 68.79 219.39 70.01 219.73 71.24 220.03 72.47 220.31 73.69 220.57 74.92 220.82 76.14 221.07 77.37 221.32 78.6 221.57 79.82 221.83 81.05 222.09 82.28 222.34 83.5 222.56 84.73 222.74 85.96 222.85 87.18 222.91 88.41 222.89 89.64 222.79 90.86 222.61 92.09 222.35 93.31 222.03 94.54 221.66 95.77 221.23 96.99 220.74 98.22 220.21 99.45 219.67 100.67 219.15 101.9 218.71 103.13 218.35 104.35 218.07 105.58 217.82 106.81 217.56 108.03 217.28 109.26 216.96 110.48 216.6 111.71 216.23 112.94 215.86 114.16 215.53 115.39 215.25 116.62 215.04 117.84 214.89 119.07 214.78 120.3 214.7 121.52 214.63 122.75 214.57 123.98 214.51 125.2 214.44 126.43 214.38 127.65 214.31 128.88 214.25 130.11 214.2 131.33 214.16 132.56 214.13 133.79 214.1 135.01 214.08 136.24 214.07 137.47 214.06 138.69 214.06 139.92"/>
  </g>
  <g class="st53">
    <path class="st56" d="M63.49-116.06"/>
    <path class="st2" d="M63.49-116.06"/>
  </g>
  <g class="st17">
    <path class="st57" d="M63.49-116.06"/>
    <path class="st2" d="M63.49-116.06"/>
  </g>
  <g class="st14">
    <path class="st58" d="M63.49-116.06"/>
    <path class="st2" d="M63.49-116.06"/>
  </g>
  <line x1="63.49" y1="161.97" x2="63.49" y2="163.74"/>
  <line class="st5" x1="63.49" y1="161.97" x2="63.49" y2="163.74"/>
  <polygon points="62.11 170.31 63.25 170.31 63.25 166.37 62.01 166.62 62.01 165.98 63.24 165.73 63.95 165.73 63.95 170.31 65.09 170.31 65.09 170.9 62.11 170.9 62.11 170.31"/>
  <line x1="129.91" y1="161.97" x2="129.91" y2="163.74"/>
  <line class="st5" x1="129.91" y1="161.97" x2="129.91" y2="163.74"/>
  <path d="M129.02,170.31h2.44v.59h-3.28v-.59c.26-.27.62-.64,1.09-1.11.45-.46.74-.76.87-.89.23-.25.38-.46.47-.64.09-.17.13-.35.13-.52,0-.27-.1-.5-.29-.67-.19-.17-.44-.26-.75-.26-.22,0-.45.04-.7.11-.24.08-.5.19-.78.35v-.71c.28-.11.55-.2.79-.26s.47-.09.67-.09c.53,0,.96.13,1.28.4.32.27.48.62.48,1.07,0,.21-.04.42-.12.6-.08.19-.22.42-.43.67-.06.07-.24.26-.55.58-.31.32-.74.77-1.3,1.34Z"/>
  <line x1="196.34" y1="161.97" x2="196.34" y2="163.74"/>
  <line class="st5" x1="196.34" y1="161.97" x2="196.34" y2="163.74"/>
  <path d="M196.96,168.12c.33.07.6.22.78.45s.28.51.28.84c0,.51-.18.91-.52,1.18-.35.28-.85.41-1.5.41-.22,0-.45-.02-.67-.06-.23-.04-.47-.1-.71-.18v-.67c.19.11.4.2.64.26.23.06.47.09.72.09.44,0,.77-.09,1-.26.23-.17.35-.43.35-.76,0-.3-.11-.54-.32-.71-.21-.17-.51-.26-.89-.26h-.6v-.57h.63c.34,0,.6-.06.79-.21.18-.13.28-.33.28-.6s-.1-.47-.28-.61c-.19-.14-.46-.21-.81-.21-.19,0-.4.02-.62.06-.22.04-.46.11-.72.19v-.62c.26-.07.51-.13.74-.16.23-.04.45-.06.66-.06.52,0,.94.12,1.26.36.31.24.47.57.47.98,0,.28-.09.52-.25.72-.16.2-.4.34-.7.41Z"/>
  <line x1="30.27" y1="138.95" x2="28.5" y2="138.95"/>
  <line class="st5" x1="30.27" y1="138.95" x2="28.5" y2="138.95"/>
  <polygon points="20.91 140.46 21.73 140.46 21.73 137.64 20.84 137.82 20.84 137.36 21.72 137.18 22.22 137.18 22.22 140.46 23.04 140.46 23.04 140.88 20.91 140.88 20.91 140.46"/>
  <polygon points="24.13 140.46 24.95 140.46 24.95 137.64 24.06 137.82 24.06 137.36 24.95 137.18 25.45 137.18 25.45 140.46 26.26 140.46 26.26 140.88 24.13 140.88 24.13 140.46"/>
  <g class="st21">
    <rect x="16.58" y="139.08" width="3.17" height=".42"/>
  </g>
  <line x1="30.27" y1="115.77" x2="28.5" y2="115.77"/>
  <line class="st5" x1="30.27" y1="115.77" x2="28.5" y2="115.77"/>
  <polygon points="20.91 117.27 21.73 117.27 21.73 114.46 20.84 114.63 20.84 114.18 21.72 114 22.22 114 22.22 117.27 23.04 117.27 23.04 117.69 20.91 117.69 20.91 117.27"/>
  <path d="M25.12,113.94c.41,0,.72.17.95.49.22.33.33.81.33,1.42s-.11,1.1-.33,1.42c-.22.32-.54.49-.95.49s-.73-.16-.95-.49-.32-.8-.32-1.42.11-1.09.32-1.42c.22-.32.54-.49.95-.49ZM25.12,114.33c-.26,0-.45.13-.58.38-.13.25-.19.63-.19,1.14s.06.89.19,1.14c.13.25.32.38.58.38s.45-.13.58-.38c.13-.25.19-.63.19-1.14s-.07-.89-.19-1.14c-.13-.25-.32-.38-.58-.38Z"/>
  <g class="st19">
    <rect x="16.58" y="115.9" width="3.17" height=".42"/>
  </g>
  <line x1="30.27" y1="92.59" x2="28.5" y2="92.59"/>
  <line class="st5" x1="30.27" y1="92.59" x2="28.5" y2="92.59"/>
  <path d="M25.06,92.87c.22,0,.4-.08.53-.23s.2-.36.2-.63-.07-.48-.2-.63c-.13-.15-.31-.23-.53-.23s-.4.08-.53.23c-.13.15-.2.36-.2.63s.07.48.2.63c.13.15.31.23.53.23ZM24.06,94.43v-.46c.12.06.25.11.38.14.13.03.25.05.38.05.32,0,.58-.11.75-.33s.27-.56.3-1.01c-.1.14-.22.25-.36.33-.15.08-.31.11-.49.11-.37,0-.67-.11-.88-.33-.21-.22-.32-.53-.32-.92s.11-.68.33-.91c.22-.23.52-.34.9-.34.43,0,.75.17.98.49.22.33.34.81.34,1.42s-.14,1.05-.42,1.39c-.28.34-.65.52-1.11.52-.13,0-.25-.02-.38-.04-.13-.02-.26-.06-.4-.11Z"/>
  <g class="st20">
    <rect x="19.8" y="92.71" width="3.17" height=".42"/>
  </g>
  <line x1="30.27" y1="69.4" x2="28.5" y2="69.4"/>
  <line class="st5" x1="30.27" y1="69.4" x2="28.5" y2="69.4"/>
  <path d="M24.43,68.57c0,.19.06.34.18.45.12.11.29.16.51.16s.38-.05.5-.16c.12-.11.18-.26.18-.45s-.06-.34-.18-.45c-.12-.11-.29-.16-.5-.16s-.39.06-.51.16c-.12.11-.18.25-.18.45ZM24.62,69.36c-.21-.05-.38-.15-.5-.3-.12-.15-.18-.32-.18-.54,0-.29.1-.53.31-.7.21-.17.5-.26.87-.26s.65.09.87.26c.21.17.31.41.31.7,0,.21-.06.39-.18.54-.12.15-.28.25-.5.3.24.06.43.17.56.33.13.16.2.36.2.6,0,.36-.11.63-.33.82-.22.19-.54.28-.94.28s-.72-.09-.94-.28c-.22-.19-.32-.46-.32-.82,0-.23.07-.44.2-.6.13-.16.32-.27.56-.33ZM25.12,69.57c-.24,0-.43.07-.56.19s-.2.3-.2.52.07.4.2.53.32.19.56.19.42-.06.56-.19c.14-.13.21-.3.21-.52s-.07-.4-.2-.52c-.14-.13-.32-.19-.56-.19Z"/>
  <g class="st18">
    <rect x="19.8" y="69.53" width="3.17" height=".42"/>
  </g>
  <line x1="30.27" y1="46.22" x2="28.5" y2="46.22"/>
  <line class="st5" x1="30.27" y1="46.22" x2="28.5" y2="46.22"/>
  <polygon points="23.92 44.45 26.3 44.45 26.3 44.66 24.96 48.14 24.43 48.14 25.69 44.87 23.92 44.87 23.92 44.45"/>
  <g class="st15">
    <rect x="19.8" y="46.35" width="3.17" height=".42"/>
  </g>
  <line x1="30.27" y1="23.04" x2="28.5" y2="23.04"/>
  <line class="st5" x1="30.27" y1="23.04" x2="28.5" y2="23.04"/>
  <path d="M26.17,21.35v.46c-.13-.06-.25-.11-.38-.14-.13-.03-.26-.05-.38-.05-.33,0-.59.11-.76.33-.17.22-.27.56-.29,1.01.1-.14.22-.25.36-.33.15-.08.31-.12.49-.12.37,0,.66.12.88.34s.32.53.32.92-.12.68-.34.91c-.22.23-.52.34-.89.34-.43,0-.75-.16-.98-.49-.23-.32-.34-.8-.34-1.42,0-.58.14-1.05.42-1.39.27-.34.65-.52,1.11-.52.12,0,.25.02.38.04.13.03.26.06.4.11ZM25.18,22.91c-.22,0-.4.08-.53.23-.13.15-.2.36-.2.63s.07.48.2.63c.13.15.31.23.53.23s.4-.08.53-.23c.13-.15.2-.36.2-.63s-.07-.48-.2-.63c-.13-.15-.31-.23-.53-.23Z"/>
  <g class="st12">
    <rect x="19.8" y="23.16" width="3.17" height=".42"/>
  </g>
  <path d="M7.37,111.35v-1.44c0-1,.21-1.74.62-2.21.42-.47,1.07-.7,1.96-.7s1.55.24,1.96.71.62,1.21.62,2.2v1.44h-5.17ZM7.95,110.65h4.02v-.84c0-.71-.16-1.23-.48-1.57-.33-.33-.84-.5-1.53-.5s-1.2.17-1.52.5c-.32.33-.48.86-.48,1.57v.84Z"/>
  <path d="M8.57,104.41c0-.55.18-.99.54-1.3.36-.31.86-.48,1.5-.48s1.13.16,1.49.48c.36.32.54.75.54,1.3s-.18,1-.54,1.31c-.35.31-.85.47-1.49.47s-1.13-.16-1.5-.47c-.35-.31-.54-.75-.54-1.31ZM9.11,104.41c0,.34.13.61.4.81s.63.3,1.09.3.83-.09,1.1-.29.4-.47.4-.82-.13-.61-.4-.81-.63-.3-1.1-.3-.82.1-1.09.3-.4.47-.4.81Z"/>
  <path d="M8.81,98.78h.6c-.1.18-.17.36-.22.55-.05.18-.08.36-.08.55,0,.41.13.74.4.96s.63.34,1.1.34.84-.11,1.11-.34.39-.55.39-.96c0-.18-.02-.36-.07-.55-.05-.18-.13-.36-.23-.55h.59c.09.18.15.37.18.55.04.19.06.4.06.61,0,.58-.18,1.05-.55,1.39-.36.35-.86.52-1.48.52s-1.13-.17-1.49-.52c-.36-.35-.55-.82-.55-1.43,0-.2.02-.39.06-.57.04-.18.1-.37.18-.55Z"/>
  <polygon points="7.15 97.7 7.15 97.06 10.34 97.06 8.66 95.16 8.66 94.34 10.48 96.4 12.54 94.26 12.54 95.09 10.65 97.06 12.54 97.06 12.54 97.7 7.15 97.7"/>
  <path d="M7.15,93.57v-.64h.81v.64h-.81ZM8.66,93.57v-.64h3.88v.64h-3.88Z"/>
  <path d="M10.2,88.37h2.34v.64h-2.32c-.37,0-.64.08-.82.22-.18.14-.28.35-.28.64,0,.35.11.62.33.82.22.2.52.3.89.3h2.19v.64h-3.88v-.64h.6c-.23-.15-.4-.33-.52-.54-.11-.21-.18-.45-.18-.72,0-.44.14-.78.42-1.01.28-.23.68-.35,1.21-.35Z"/>
  <path d="M12.06,83.91c.65,0,1.14.15,1.47.44.32.3.48.74.48,1.35,0,.23-.02.43-.05.63-.04.2-.09.4-.16.58h-.62c.1-.18.17-.37.22-.55s.08-.37.08-.56c0-.41-.11-.72-.33-.94-.22-.21-.55-.31-.99-.31h-.31c.23.13.4.3.51.51.11.21.17.45.17.73,0,.48-.18.87-.54,1.16-.36.29-.84.43-1.45.43s-1.08-.14-1.44-.43c-.36-.29-.55-.67-.55-1.16,0-.28.06-.52.17-.73.11-.21.28-.38.51-.51h-.59v-.64h3.4ZM10.56,84.55c-.45,0-.82.1-1.07.28-.26.19-.38.46-.38.8s.13.61.38.8c.26.19.62.28,1.07.28s.82-.09,1.07-.28c.26-.19.38-.46.38-.8s-.13-.61-.38-.8c-.26-.18-.61-.28-1.07-.28Z"/>
  <path d="M8.78,77.87h.6c-.09.18-.16.37-.21.56-.04.2-.07.4-.07.6,0,.32.05.56.15.72s.24.23.43.23c.15,0,.26-.06.35-.17.09-.11.17-.34.24-.68l.05-.22c.1-.45.24-.77.41-.96.18-.18.43-.28.74-.28.36,0,.65.14.85.43.21.28.31.68.31,1.18,0,.21-.02.43-.06.65-.04.23-.09.46-.18.71h-.66c.13-.23.22-.47.28-.7.06-.23.09-.45.09-.68,0-.3-.05-.53-.15-.7-.1-.16-.25-.24-.44-.24-.17,0-.3.06-.4.18-.09.11-.18.37-.27.77l-.05.22c-.09.4-.21.69-.38.86-.17.18-.4.26-.71.26-.36,0-.65-.13-.84-.38-.2-.26-.3-.62-.3-1.11,0-.23.02-.45.06-.67.04-.21.09-.4.15-.57Z"/>
  <path d="M8.81,73.85h.6c-.1.18-.17.36-.22.55-.05.18-.08.36-.08.55,0,.41.13.74.4.96s.63.34,1.1.34.84-.11,1.11-.34.39-.55.39-.96c0-.18-.02-.36-.07-.55-.05-.18-.13-.36-.23-.55h.59c.09.18.15.37.18.55.04.19.06.4.06.61,0,.58-.18,1.05-.55,1.39-.36.35-.86.52-1.48.52s-1.13-.17-1.49-.52c-.36-.35-.55-.82-.55-1.43,0-.2.02-.39.06-.57.04-.18.1-.37.18-.55Z"/>
  <path d="M8.57,71.24c0-.55.18-.99.54-1.3.36-.31.86-.48,1.5-.48s1.13.16,1.49.48c.36.32.54.75.54,1.3s-.18,1-.54,1.31c-.35.31-.85.47-1.49.47s-1.13-.16-1.5-.47c-.35-.31-.54-.75-.54-1.31ZM9.11,71.24c0,.34.13.61.4.81s.63.3,1.09.3.83-.09,1.1-.29.4-.47.4-.82-.13-.61-.4-.81-.63-.3-1.1-.3-.82.1-1.09.3-.4.47-.4.81Z"/>
  <path d="M9.26,66.16c-.04.07-.07.15-.09.23-.01.09-.03.18-.03.28,0,.36.12.64.35.83.23.2.57.29,1.01.29h2.04v.64h-3.88v-.64h.6c-.23-.13-.41-.3-.52-.52-.11-.21-.17-.48-.17-.79,0-.04,0-.09,0-.15,0-.05.01-.11.03-.18h.65Z"/>
  <path d="M10.26,62.96c-.35,0-.62.11-.84.29-.21.19-.31.45-.31.76,0,.35.11.64.3.85s.48.34.84.37v-2.27ZM10.44,62.32h.31v2.93c.44-.03.78-.16,1.01-.4.23-.23.34-.56.34-.99,0-.24-.03-.48-.09-.71-.06-.23-.15-.46-.28-.69h.6c.1.23.18.46.22.7s.07.49.07.73c0,.62-.18,1.11-.53,1.48s-.84.54-1.46.54-1.13-.17-1.51-.51c-.37-.34-.56-.81-.56-1.39,0-.52.17-.94.5-1.24.34-.3.79-.45,1.37-.45Z"/>
  <path d="M8.78,58.8h.6c-.09.18-.16.37-.21.56-.04.2-.07.4-.07.6,0,.32.05.56.15.72s.24.23.43.23c.15,0,.26-.06.35-.17.09-.11.17-.34.24-.68l.05-.22c.1-.45.24-.77.41-.96.18-.18.43-.28.74-.28.36,0,.65.14.85.43.21.28.31.68.31,1.18,0,.21-.02.43-.06.65-.04.23-.09.46-.18.71h-.66c.13-.23.22-.47.28-.7.06-.23.09-.45.09-.68,0-.3-.05-.53-.15-.7-.1-.16-.25-.24-.44-.24-.17,0-.3.06-.4.18-.09.11-.18.37-.27.77l-.05.22c-.09.4-.21.69-.38.86-.17.18-.4.26-.71.26-.36,0-.65-.13-.84-.38-.2-.26-.3-.62-.3-1.11,0-.23.02-.45.06-.67.04-.21.09-.4.15-.57Z"/>
  <g class="st16">
    <line class="st7" x1="45.77" y1="125.65" x2="45.77" y2="31.15"/>
  </g>
  <g class="st13">
    <line class="st4" x1="45.77" y1="99.51" x2="45.77" y2="71.77"/>
  </g>
  <g class="st36">
    <path class="st8" d="M45.77,87.31"/>
    <line class="st11" x1="46.96" y1="87.31" x2="44.58" y2="87.31"/>
    <line class="st3" x1="46.96" y1="87.31" x2="44.58" y2="87.31"/>
  </g>
  <g class="st37">
    <line class="st7" x1="63.49" y1="135.62" x2="63.49" y2="44.97"/>
  </g>
  <g class="st38">
    <line class="st4" x1="63.49" y1="103.81" x2="63.49" y2="80.15"/>
  </g>
  <g class="st39">
    <path class="st8" d="M63.49,94.05"/>
    <line class="st11" x1="64.67" y1="94.05" x2="62.3" y2="94.05"/>
    <line class="st3" x1="64.67" y1="94.05" x2="62.3" y2="94.05"/>
  </g>
  <g class="st40">
    <line class="st7" x1="81.2" y1="142.78" x2="81.2" y2="64.42"/>
  </g>
  <g class="st41">
    <line class="st4" x1="81.2" y1="114.63" x2="81.2" y2="94.49"/>
  </g>
  <g class="st34">
    <path class="st8" d="M81.2,105.18"/>
    <line class="st11" x1="82.39" y1="105.18" x2="80.01" y2="105.18"/>
    <line class="st3" x1="82.39" y1="105.18" x2="80.01" y2="105.18"/>
  </g>
  <g class="st32">
    <line class="st7" x1="112.2" y1="91.61" x2="112.2" y2="49.88"/>
  </g>
  <g class="st35">
    <line class="st4" x1="112.2" y1="80.53" x2="112.2" y2="60.69"/>
  </g>
  <g class="st33">
    <path class="st8" d="M112.2,69.29"/>
    <line class="st11" x1="113.38" y1="69.29" x2="111.01" y2="69.29"/>
    <line class="st3" x1="113.38" y1="69.29" x2="111.01" y2="69.29"/>
  </g>
  <g class="st28">
    <line class="st7" x1="129.91" y1="111.53" x2="129.91" y2="42.42"/>
  </g>
  <g class="st22">
    <line class="st4" x1="129.91" y1="84.64" x2="129.91" y2="66.58"/>
  </g>
  <g class="st23">
    <path class="st8" d="M129.91,74.64"/>
    <line class="st11" x1="131.1" y1="74.64" x2="128.72" y2="74.64"/>
    <line class="st3" x1="131.1" y1="74.64" x2="128.72" y2="74.64"/>
  </g>
  <g class="st24">
    <line class="st7" x1="147.62" y1="121.59" x2="147.62" y2="39.22"/>
  </g>
  <g class="st25">
    <line class="st4" x1="147.62" y1="89.16" x2="147.62" y2="67.02"/>
  </g>
  <g class="st26">
    <path class="st8" d="M147.62,77.56"/>
    <line class="st11" x1="148.81" y1="77.56" x2="146.44" y2="77.56"/>
    <line class="st3" x1="148.81" y1="77.56" x2="146.44" y2="77.56"/>
  </g>
  <g class="st29">
    <line class="st7" x1="178.62" y1="118.39" x2="178.62" y2="43.02"/>
  </g>
  <g class="st30">
    <line class="st4" x1="178.62" y1="91.31" x2="178.62" y2="71.83"/>
  </g>
  <g class="st31">
    <path class="st8" d="M178.62,81.12"/>
    <line class="st11" x1="179.81" y1="81.12" x2="177.44" y2="81.12"/>
    <line class="st3" x1="179.81" y1="81.12" x2="177.44" y2="81.12"/>
  </g>
  <g class="st27">
    <line class="st7" x1="196.34" y1="115.49" x2="196.34" y2="45.71"/>
  </g>
  <g class="st46">
    <line class="st4" x1="196.34" y1="89.62" x2="196.34" y2="71.05"/>
  </g>
  <g class="st42">
    <path class="st8" d="M196.34,79.16"/>
    <line class="st11" x1="197.52" y1="79.16" x2="195.15" y2="79.16"/>
    <line class="st3" x1="197.52" y1="79.16" x2="195.15" y2="79.16"/>
  </g>
  <g class="st43">
    <line class="st7" x1="214.05" y1="127.18" x2="214.05" y2="49.58"/>
  </g>
  <g class="st44">
    <line class="st4" x1="214.05" y1="96.85" x2="214.05" y2="76.43"/>
  </g>
  <g class="st45">
    <path class="st8" d="M214.05,86.98"/>
    <line class="st11" x1="215.24" y1="86.98" x2="212.86" y2="86.98"/>
    <line class="st3" x1="215.24" y1="86.98" x2="212.86" y2="86.98"/>
  </g>
  <line class="st9" x1="30.27" y1="161.97" x2="30.27" y2="8.31"/>
  <line class="st9" x1="229.55" y1="161.97" x2="229.55" y2="8.31"/>
  <line class="st9" x1="30.27" y1="161.97" x2="229.55" y2="161.97"/>
  <line class="st9" x1="30.27" y1="8.31" x2="229.55" y2="8.31"/>
  <g>
    <rect class="st10" x="140.45" y="11.85" width="85.56" height="33.35" rx="1.42" ry="1.42"/>
    <rect class="st1" x="140.45" y="11.85" width="85.56" height="33.35" rx="1.42" ry="1.42"/>
  </g>
  <rect class="st56" x="143.29" y="15.12" width="14.18" height="4.96"/>
  <rect class="st2" x="143.29" y="15.12" width="14.18" height="4.96"/>
  <polygon points="163.84 14.91 164.78 14.91 167.07 19.24 167.07 14.91 167.75 14.91 167.75 20.08 166.81 20.08 164.52 15.75 164.52 20.08 163.84 20.08 163.84 14.91"/>
  <path d="M172.15,17.87v2.21h-.64v-.59c-.15.24-.33.41-.55.52-.21.11-.48.16-.79.16-.4,0-.72-.11-.95-.33s-.35-.52-.35-.89c0-.43.14-.76.44-.99.29-.22.72-.33,1.3-.33h.89v-.06c0-.29-.1-.52-.29-.68-.19-.16-.46-.24-.81-.24-.23,0-.44.03-.65.09-.21.06-.41.13-.6.23v-.59c.23-.09.45-.16.67-.2.22-.04.43-.07.65-.07.56,0,.98.15,1.26.44.28.29.42.73.42,1.32ZM170.88,18.13c-.52,0-.87.06-1.07.18-.2.12-.3.32-.3.6,0,.23.07.41.22.54.15.13.35.2.61.2.35,0,.64-.12.85-.38.21-.25.32-.58.32-1v-.14h-.63Z"/>
  <path d="M174.09,15.1v1.1h1.31v.5h-1.31v2.11c0,.32.04.52.13.61.09.09.26.13.53.13h.65v.53h-.65c-.5,0-.84-.09-1.02-.28-.18-.18-.28-.52-.28-1v-2.11h-.47v-.5h.47v-1.1h.64Z"/>
  <path d="M177.78,16.11,176.18,18.55v-2.35h.64v2.33c0,.37.07.64.21.82.14.18.35.28.65.28.34,0,.62-.11.82-.33.2-.22.3-.52.3-.9v-2.2h.64v3.88h-.64v-.6c-.16.24-.34.41-.54.52-.21.11-.44.16-.71.16-.45,0-.79-.13-1.01-.41-.23-.27-.35-.67-.35-1.21Z"/>
  <path d="M182.99,16.8c-.07-.04-.15-.07-.23-.09-.09-.01-.18-.03-.28-.03-.36,0-.64.12-.83.35-.2.23-.29.57-.29,1.01v2.04h-.64v-3.88h.64v.6c.13-.23.3-.41.52-.52s.48-.17.79-.17c.04,0,.09,0,.15,0,.05,0,.11.01.18.03v.65Z"/>
  <path d="M186.19,17.8c0-.35-.11-.62-.29-.84-.19-.21-.45-.31-.76-.31-.35,0-.64.11-.85.3-.21.2-.34.48-.37.84h2.27ZM186.82,17.98v.31h-2.93c.03.44.16.78.4,1.01.23.23.56.34.99.34.24,0,.48-.03.71-.09s.46-.15.69-.28v.6c-.23.1-.46.18-.7.22-.24.04-.49.07-.73.07-.62,0-1.11-.18-1.48-.53-.36-.35-.54-.84-.54-1.46s.17-1.13.51-1.51c.34-.37.81-.56,1.39-.56.52,0,.94.17,1.24.5.3.34.45.79.45,1.37Z"/>
  <polygon points="187.89 14.91 188.6 14.91 188.6 19.49 191.11 19.49 191.11 20.08 187.89 20.08 187.89 14.91"/>
  <polygon points="191.85 14.91 192.89 14.91 194.21 18.43 195.53 14.91 196.58 14.91 196.58 20.08 195.89 20.08 195.89 15.54 194.56 19.09 193.86 19.09 192.53 15.54 192.53 20.08 191.85 20.08 191.85 14.91"/>
  <path d="M201.72,14.7c-.31.54-.54,1.06-.69,1.58-.16.52-.23,1.04-.23,1.57s.07,1.06.23,1.58c.15.52.38,1.04.69,1.57h-.55c-.35-.55-.61-1.07-.78-1.6-.17-.52-.26-1.04-.26-1.56s.09-1.03.26-1.55c.17-.52.43-1.06.78-1.6h.55Z"/>
  <polygon points="203.17 19.49 204.31 19.49 204.31 15.55 203.07 15.8 203.07 15.16 204.31 14.91 205.01 14.91 205.01 19.49 206.15 19.49 206.15 20.08 203.17 20.08 203.17 19.49"/>
  <path d="M207.5,14.91h1.79c.53,0,.94.11,1.23.33.28.23.43.54.43.94,0,.32-.08.57-.23.76-.15.18-.36.3-.65.35.34.08.61.23.8.47.18.23.28.52.28.87,0,.47-.16.82-.48,1.07-.31.26-.76.38-1.33.38h-1.86v-5.17ZM208.2,15.48v1.56h1.04c.34,0,.59-.06.76-.19.17-.13.26-.32.26-.59,0-.26-.09-.45-.26-.58-.17-.13-.42-.2-.76-.2h-1.04ZM208.2,17.61v1.89h1.12c.38,0,.65-.08.84-.23.18-.16.27-.39.27-.72s-.09-.55-.27-.71c-.18-.16-.46-.23-.84-.23h-1.12Z"/>
  <path d="M212.24,14.7h.55c.34.55.6,1.08.77,1.6.17.52.26,1.04.26,1.55s-.09,1.04-.26,1.56c-.17.52-.43,1.05-.77,1.6h-.55c.3-.53.53-1.05.69-1.57.15-.52.23-1.04.23-1.58s-.08-1.06-.23-1.57c-.16-.52-.38-1.04-.69-1.58Z"/>
  <rect class="st57" x="143.29" y="25.52" width="14.18" height="4.96"/>
  <rect class="st2" x="143.29" y="25.52" width="14.18" height="4.96"/>
  <polygon points="163.84 25.32 164.78 25.32 167.07 29.65 167.07 25.32 167.75 25.32 167.75 30.49 166.81 30.49 164.52 26.16 164.52 30.49 163.84 30.49 163.84 25.32"/>
  <path d="M172.15,28.28v2.21h-.64v-.59c-.15.24-.33.41-.55.52-.21.11-.48.16-.79.16-.4,0-.72-.11-.95-.33s-.35-.52-.35-.89c0-.43.14-.76.44-.99.29-.22.72-.33,1.3-.33h.89v-.06c0-.29-.1-.52-.29-.68-.19-.16-.46-.24-.81-.24-.23,0-.44.03-.65.09-.21.06-.41.13-.6.23v-.59c.23-.09.45-.16.67-.2.22-.04.43-.07.65-.07.56,0,.98.15,1.26.44.28.29.42.73.42,1.32ZM170.88,28.54c-.52,0-.87.06-1.07.18-.2.12-.3.32-.3.6,0,.23.07.41.22.54.15.13.35.2.61.2.35,0,.64-.12.85-.38.21-.25.32-.58.32-1v-.14h-.63Z"/>
  <path d="M174.09,25.51v1.1h1.31v.5h-1.31v2.11c0,.32.04.52.13.61.09.09.26.13.53.13h.65v.53h-.65c-.5,0-.84-.09-1.02-.28-.18-.18-.28-.52-.28-1v-2.11h-.47v-.5h.47v-1.1h.64Z"/>
  <path d="M177.78,26.52,176.18,28.96v-2.35h.64v2.33c0,.37.07.64.21.82.14.18.35.28.65.28.34,0,.62-.11.82-.33.2-.22.3-.52.3-.9v-2.2h.64v3.88h-.64v-.6c-.16.24-.34.41-.54.52-.21.11-.44.16-.71.16-.45,0-.79-.13-1.01-.41-.23-.27-.35-.67-.35-1.21Z"/>
  <path d="M182.99,27.21c-.07-.04-.15-.07-.23-.09-.09-.01-.18-.03-.28-.03-.36,0-.64.12-.83.35-.2.23-.29.57-.29,1.01v2.04h-.64v-3.88h.64v.6c.13-.23.3-.41.52-.52s.48-.17.79-.17c.04,0,.09,0,.15,0,.05,0,.11.01.18.03v.65Z"/>
  <path d="M186.19,28.21c0-.35-.11-.62-.29-.84-.19-.21-.45-.31-.76-.31-.35,0-.64.11-.85.3-.21.2-.34.48-.37.84h2.27ZM186.82,28.39v.31h-2.93c.03.44.16.78.4,1.01.23.23.56.34.99.34.24,0,.48-.03.71-.09s.46-.15.69-.28v.6c-.23.1-.46.18-.7.22-.24.04-.49.07-.73.07-.62,0-1.11-.18-1.48-.53-.36-.35-.54-.84-.54-1.46s.17-1.13.51-1.51c.34-.37.81-.56,1.39-.56.52,0,.94.17,1.24.5.3.34.45.79.45,1.37Z"/>
  <polygon points="187.89 25.32 188.6 25.32 188.6 29.9 191.11 29.9 191.11 30.49 187.89 30.49 187.89 25.32"/>
  <polygon points="191.85 25.32 192.89 25.32 194.21 28.84 195.53 25.32 196.58 25.32 196.58 30.49 195.89 30.49 195.89 25.95 194.56 29.5 193.86 29.5 192.53 25.95 192.53 30.49 191.85 30.49 191.85 25.32"/>
  <path d="M201.72,25.11c-.31.54-.54,1.06-.69,1.58-.16.52-.23,1.04-.23,1.57s.07,1.06.23,1.58c.15.52.38,1.04.69,1.57h-.55c-.35-.55-.61-1.07-.78-1.6-.17-.52-.26-1.04-.26-1.56s.09-1.03.26-1.55c.17-.52.43-1.06.78-1.6h.55Z"/>
  <path d="M203.59,26.63c0,.27.08.48.25.63s.4.22.71.22.53-.07.7-.22.26-.36.26-.63-.09-.48-.26-.62-.4-.23-.7-.23-.54.08-.71.23-.25.35-.25.62ZM203.85,27.74c-.3-.07-.53-.21-.7-.42s-.25-.45-.25-.75c0-.41.14-.74.44-.98.29-.24.7-.36,1.21-.36s.91.12,1.21.36c.29.24.44.57.44.98,0,.3-.09.55-.26.75s-.4.35-.7.42c.33.08.6.23.79.46.18.23.28.51.28.84,0,.5-.16.89-.46,1.15-.31.27-.75.4-1.32.4s-1.01-.13-1.31-.4c-.3-.26-.45-.65-.45-1.15,0-.33.09-.61.28-.84.18-.23.45-.38.79-.46ZM204.55,28.04c-.33,0-.6.09-.79.27-.19.18-.28.42-.28.73s.09.56.28.74c.19.18.45.26.79.26s.59-.09.78-.27c.19-.18.29-.42.29-.73s-.1-.55-.28-.73c-.19-.18-.45-.27-.79-.27Z"/>
  <path d="M207.5,25.32h1.79c.53,0,.94.11,1.23.33.28.23.43.54.43.94,0,.32-.08.57-.23.76-.15.18-.36.3-.65.35.34.08.61.23.8.47.18.23.28.52.28.87,0,.47-.16.82-.48,1.07-.31.26-.76.38-1.33.38h-1.86v-5.17ZM208.2,25.89v1.56h1.04c.34,0,.59-.06.76-.19.17-.13.26-.32.26-.59,0-.26-.09-.45-.26-.58-.17-.13-.42-.2-.76-.2h-1.04ZM208.2,28.02v1.89h1.12c.38,0,.65-.08.84-.23.18-.16.27-.39.27-.72s-.09-.55-.27-.71c-.18-.16-.46-.23-.84-.23h-1.12Z"/>
  <path d="M212.24,25.11h.55c.34.55.6,1.08.77,1.6.17.52.26,1.04.26,1.55s-.09,1.04-.26,1.56c-.17.52-.43,1.05-.77,1.6h-.55c.3-.53.53-1.05.69-1.57.15-.52.23-1.04.23-1.58s-.08-1.06-.23-1.57c-.16-.52-.38-1.04-.69-1.58Z"/>
  <rect class="st58" x="143.29" y="35.93" width="14.18" height="4.96"/>
  <rect class="st2" x="143.29" y="35.93" width="14.18" height="4.96"/>
  <polygon points="163.84 35.73 164.78 35.73 167.07 40.05 167.07 35.73 167.75 35.73 167.75 40.9 166.81 40.9 164.52 36.57 164.52 40.9 163.84 40.9 163.84 35.73"/>
  <path d="M172.15,38.69v2.21h-.64v-.59c-.15.24-.33.41-.55.52-.21.11-.48.16-.79.16-.4,0-.72-.11-.95-.33s-.35-.52-.35-.89c0-.43.14-.76.44-.99.29-.22.72-.33,1.3-.33h.89v-.06c0-.29-.1-.52-.29-.68-.19-.16-.46-.24-.81-.24-.23,0-.44.03-.65.09-.21.06-.41.13-.6.23v-.59c.23-.09.45-.16.67-.2.22-.04.43-.07.65-.07.56,0,.98.15,1.26.44.28.29.42.73.42,1.32ZM170.88,38.95c-.52,0-.87.06-1.07.18-.2.12-.3.32-.3.6,0,.23.07.41.22.54.15.13.35.2.61.2.35,0,.64-.12.85-.38.21-.25.32-.58.32-1v-.14h-.63Z"/>
  <path d="M174.09,35.92v1.1h1.31v.5h-1.31v2.11c0,.32.04.52.13.61.09.09.26.13.53.13h.65v.53h-.65c-.5,0-.84-.09-1.02-.28-.18-.18-.28-.52-.28-1v-2.11h-.47v-.5h.47v-1.1h.64Z"/>
  <path d="M177.78,36.93,176.18,39.37v-2.35h.64v2.33c0,.37.07.64.21.82.14.18.35.28.65.28.34,0,.62-.11.82-.33.2-.22.3-.52.3-.9v-2.2h.64v3.88h-.64v-.6c-.16.24-.34.41-.54.52-.21.11-.44.16-.71.16-.45,0-.79-.13-1.01-.41-.23-.27-.35-.67-.35-1.21Z"/>
  <path d="M182.99,37.61c-.07-.04-.15-.07-.23-.09-.09-.01-.18-.03-.28-.03-.36,0-.64.12-.83.35-.2.23-.29.57-.29,1.01v2.04h-.64v-3.88h.64v.6c.13-.23.3-.41.52-.52s.48-.17.79-.17c.04,0,.09,0,.15,0,.05,0,.11.01.18.03v.65Z"/>
  <path d="M186.19,38.61c0-.35-.11-.62-.29-.84-.19-.21-.45-.31-.76-.31-.35,0-.64.11-.85.3-.21.2-.34.48-.37.84h2.27ZM186.82,38.8v.31h-2.93c.03.44.16.78.4,1.01.23.23.56.34.99.34.24,0,.48-.03.71-.09s.46-.15.69-.28v.6c-.23.1-.46.18-.7.22-.24.04-.49.07-.73.07-.62,0-1.11-.18-1.48-.53-.36-.35-.54-.84-.54-1.46s.17-1.13.51-1.51c.34-.37.81-.56,1.39-.56.52,0,.94.17,1.24.5.3.34.45.79.45,1.37Z"/>
  <polygon points="187.89 35.73 188.6 35.73 188.6 40.31 191.11 40.31 191.11 40.9 187.89 40.9 187.89 35.73"/>
  <polygon points="191.85 35.73 192.89 35.73 194.21 39.25 195.53 35.73 196.58 35.73 196.58 40.9 195.89 40.9 195.89 36.36 194.56 39.91 193.86 39.91 192.53 36.36 192.53 40.9 191.85 40.9 191.85 35.73"/>
  <path d="M201.72,35.51c-.31.54-.54,1.06-.69,1.58-.16.52-.23,1.04-.23,1.57s.07,1.06.23,1.58c.15.52.38,1.04.69,1.57h-.55c-.35-.55-.61-1.07-.78-1.6-.17-.52-.26-1.04-.26-1.56s.09-1.03.26-1.55c.17-.52.43-1.06.78-1.6h.55Z"/>
  <path d="M203.59,37.04c0,.27.08.48.25.63s.4.22.71.22.53-.07.7-.22.26-.36.26-.63-.09-.48-.26-.62-.4-.23-.7-.23-.54.08-.71.23-.25.35-.25.62ZM203.85,38.15c-.3-.07-.53-.21-.7-.42s-.25-.45-.25-.75c0-.41.14-.74.44-.98.29-.24.7-.36,1.21-.36s.91.12,1.21.36c.29.24.44.57.44.98,0,.3-.09.55-.26.75s-.4.35-.7.42c.33.08.6.23.79.46.18.23.28.51.28.84,0,.5-.16.89-.46,1.15-.31.27-.75.4-1.32.4s-1.01-.13-1.31-.4c-.3-.26-.45-.65-.45-1.15,0-.33.09-.61.28-.84.18-.23.45-.38.79-.46ZM204.55,38.44c-.33,0-.6.09-.79.27-.19.18-.28.42-.28.73s.09.56.28.74c.19.18.45.26.79.26s.59-.09.78-.27c.19-.18.29-.42.29-.73s-.1-.55-.28-.73c-.19-.18-.45-.27-.79-.27Z"/>
  <polygon points="210.7 37.02 209.29 38.91 210.77 40.9 210.02 40.9 208.89 39.37 207.76 40.9 207.01 40.9 208.51 38.87 207.14 37.02 207.89 37.02 208.92 38.4 209.94 37.02 210.7 37.02"/>
  <polygon points="211.58 35.73 214.91 35.73 214.91 36.03 213.03 40.9 212.3 40.9 214.07 36.32 211.58 36.32 211.58 35.73"/>
  <path d="M216.21,35.73h1.79c.53,0,.94.11,1.23.33.28.23.43.54.43.94,0,.32-.08.57-.23.76-.15.18-.36.3-.65.35.34.08.61.23.8.47.18.23.28.52.28.87,0,.47-.16.82-.48,1.07-.31.26-.76.38-1.33.38h-1.86v-5.17ZM216.91,36.3v1.56h1.04c.34,0,.59-.06.76-.19.17-.13.26-.32.26-.59,0-.26-.09-.45-.26-.58-.17-.13-.42-.2-.76-.2h-1.04ZM216.91,38.43v1.89h1.12c.38,0,.65-.08.84-.23.18-.16.27-.39.27-.72s-.09-.55-.27-.71c-.18-.16-.46-.23-.84-.23h-1.12Z"/>
  <path d="M220.94,35.51h.55c.34.55.6,1.08.77,1.6.17.52.26,1.04.26,1.55s-.09,1.04-.26,1.56c-.17.52-.43,1.05-.77,1.6h-.55c.3-.53.53-1.05.69-1.57.15-.52.23-1.04.23-1.58s-.08-1.06-.23-1.57c-.16-.52-.38-1.04-.69-1.58Z"/>
</svg>